<svg id="Layer_1" data-name="Layer 1" xmlns="http://www.w3.org/2000/svg" viewBox="0 0 800 800"><defs><style>.cls-1{fill:#1333a6;}.cls-2{fill:#05004e;}.cls-3{fill:#3e64ff;}.cls-4{fill:#fff;}.cls-5{fill:#f8ffff;}.cls-6{fill:#ff5151;}.cls-7{fill:#e4e4e4;}.cls-8{fill:#ff998c;}.cls-9{fill:#393939;}.cls-10{fill:#232323;}</style></defs><title>Banner-Home</title><path class="cls-1" d="M407.75,326.57A80.23,80.23,0,0,1,384.66,169.5a130.27,130.27,0,0,1-.83-14.49c0-71.84,58.45-130.29,130.3-130.29A130.25,130.25,0,0,1,627,89.86a67.55,67.55,0,0,1,27.59-5.81,68.49,68.49,0,0,1,68.36,65.85A91.67,91.67,0,0,1,766,181.38a90.82,90.82,0,0,1-72.73,145.19Z"/><rect class="cls-2" x="83.61" y="279.76" width="9.31" height="338.14"/><rect class="cls-2" x="252.15" y="279.76" width="9.31" height="341.19"/><rect class="cls-2" x="274.71" y="279.76" width="9.31" height="335.08"/><rect class="cls-2" x="443.03" y="279.76" width="9.31" height="336.61"/><path class="cls-3" d="M477.35,313.57H60.94c-4.62,0-8.37-4.48-8.37-10V217.47c0-5.53,3.75-10,8.37-10H477.35c4.62,0,8.37,4.49,8.37,10v86.08C485.72,309.09,482,313.57,477.35,313.57Z"/><path class="cls-2" d="M103.79,238.92H75c-3.64,0-6.58-3.53-6.58-7.88h0c0-4.35,2.94-7.88,6.58-7.88h28.8c3.63,0,6.58,3.53,6.58,7.88h0C110.37,235.39,107.42,238.92,103.79,238.92Z"/><path class="cls-2" d="M158.91,238.92h-28.8c-3.63,0-6.58-3.53-6.58-7.88h0c0-4.35,3-7.88,6.58-7.88h28.8c3.64,0,6.59,3.53,6.59,7.88h0C165.5,235.39,162.55,238.92,158.91,238.92Z"/><path class="cls-2" d="M214,238.92h-28.8c-3.63,0-6.58-3.53-6.58-7.88h0c0-4.35,3-7.88,6.58-7.88H214c3.64,0,6.58,3.53,6.58,7.88h0C220.62,235.39,217.68,238.92,214,238.92Z"/><path class="cls-2" d="M269.17,238.92h-28.8c-3.64,0-6.58-3.53-6.58-7.88h0c0-4.35,2.94-7.88,6.58-7.88h28.8c3.63,0,6.58,3.53,6.58,7.88h0C275.75,235.39,272.8,238.92,269.17,238.92Z"/><path class="cls-2" d="M103.79,268.94H75c-3.64,0-6.58-3.53-6.58-7.88h0c0-4.36,2.94-7.88,6.58-7.88h28.8c3.63,0,6.58,3.52,6.58,7.88h0C110.37,265.41,107.42,268.94,103.79,268.94Z"/><path class="cls-2" d="M158.91,268.94h-28.8c-3.63,0-6.58-3.53-6.58-7.88h0c0-4.36,3-7.88,6.58-7.88h28.8c3.64,0,6.59,3.52,6.59,7.88h0C165.5,265.41,162.55,268.94,158.91,268.94Z"/><path class="cls-2" d="M214,268.94h-28.8c-3.63,0-6.58-3.53-6.58-7.88h0c0-4.36,3-7.88,6.58-7.88H214c3.64,0,6.58,3.52,6.58,7.88h0C220.62,265.41,217.68,268.94,214,268.94Z"/><path class="cls-2" d="M269.17,268.94h-28.8c-3.64,0-6.58-3.53-6.58-7.88h0c0-4.36,2.94-7.88,6.58-7.88h28.8c3.63,0,6.58,3.52,6.58,7.88h0C275.75,265.41,272.8,268.94,269.17,268.94Z"/><path class="cls-2" d="M103.79,299H75c-3.64,0-6.58-3.53-6.58-7.88h0c0-4.35,2.94-7.88,6.58-7.88h28.8c3.63,0,6.58,3.53,6.58,7.88h0C110.37,295.42,107.42,299,103.79,299Z"/><path class="cls-2" d="M158.91,299h-28.8c-3.63,0-6.58-3.53-6.58-7.88h0c0-4.35,3-7.88,6.58-7.88h28.8c3.64,0,6.59,3.53,6.59,7.88h0C165.5,295.42,162.55,299,158.91,299Z"/><path class="cls-2" d="M214,299h-28.8c-3.63,0-6.58-3.53-6.58-7.88h0c0-4.35,3-7.88,6.58-7.88H214c3.64,0,6.58,3.53,6.58,7.88h0C220.62,295.42,217.68,299,214,299Z"/><path class="cls-2" d="M269.17,299h-28.8c-3.64,0-6.58-3.53-6.58-7.88h0c0-4.35,2.94-7.88,6.58-7.88h28.8c3.63,0,6.58,3.53,6.58,7.88h0C275.75,295.42,272.8,299,269.17,299Z"/><circle class="cls-4" cx="347.18" cy="265.07" r="13.12"/><circle class="cls-4" cx="382.7" cy="265.07" r="13.12"/><path class="cls-5" d="M430.14,243.91a21.3,21.3,0,0,0-4.26.43,21.16,21.16,0,0,1,0,41.46,21.16,21.16,0,1,0,4.26-41.89Z"/><path class="cls-6" d="M442.78,265.07a21.16,21.16,0,0,0-16.9-20.73,21.16,21.16,0,0,0,0,41.46A21.16,21.16,0,0,0,442.78,265.07Z"/><path class="cls-3" d="M477.35,428.35H60.94c-4.62,0-8.37-4.49-8.37-10V332.25c0-5.54,3.75-10,8.37-10H477.35c4.62,0,8.37,4.48,8.37,10v86.08C485.72,423.86,482,428.35,477.35,428.35Z"/><path class="cls-2" d="M103.79,353.16H75c-3.64,0-6.58-3.53-6.58-7.88h0c0-4.35,2.94-7.88,6.58-7.88h28.8c3.63,0,6.58,3.53,6.58,7.88h0C110.37,349.63,107.42,353.16,103.79,353.16Z"/><path class="cls-2" d="M158.91,353.16h-28.8c-3.63,0-6.58-3.53-6.58-7.88h0c0-4.35,3-7.88,6.58-7.88h28.8c3.64,0,6.59,3.53,6.59,7.88h0C165.5,349.63,162.55,353.16,158.91,353.16Z"/><path class="cls-2" d="M214,353.16h-28.8c-3.63,0-6.58-3.53-6.58-7.88h0c0-4.35,3-7.88,6.58-7.88H214c3.64,0,6.58,3.53,6.58,7.88h0C220.62,349.63,217.68,353.16,214,353.16Z"/><path class="cls-2" d="M269.17,353.16h-28.8c-3.64,0-6.58-3.53-6.58-7.88h0c0-4.35,2.94-7.88,6.58-7.88h28.8c3.63,0,6.58,3.53,6.58,7.88h0C275.75,349.63,272.8,353.16,269.17,353.16Z"/><path class="cls-2" d="M103.79,383.17H75c-3.64,0-6.58-3.53-6.58-7.88h0c0-4.35,2.94-7.88,6.58-7.88h28.8c3.63,0,6.58,3.53,6.58,7.88h0C110.37,379.64,107.42,383.17,103.79,383.17Z"/><path class="cls-2" d="M158.91,383.17h-28.8c-3.63,0-6.58-3.53-6.58-7.88h0c0-4.35,3-7.88,6.58-7.88h28.8c3.64,0,6.59,3.53,6.59,7.88h0C165.5,379.64,162.55,383.17,158.91,383.17Z"/><path class="cls-2" d="M214,383.17h-28.8c-3.63,0-6.58-3.53-6.58-7.88h0c0-4.35,3-7.88,6.58-7.88H214c3.64,0,6.58,3.53,6.58,7.88h0C220.62,379.64,217.68,383.17,214,383.17Z"/><path class="cls-2" d="M269.17,383.17h-28.8c-3.64,0-6.58-3.53-6.58-7.88h0c0-4.35,2.94-7.88,6.58-7.88h28.8c3.63,0,6.58,3.53,6.58,7.88h0C275.75,379.64,272.8,383.17,269.17,383.17Z"/><path class="cls-2" d="M103.79,413.18H75c-3.64,0-6.58-3.53-6.58-7.88h0c0-4.35,2.94-7.88,6.58-7.88h28.8c3.63,0,6.58,3.53,6.58,7.88h0C110.37,409.65,107.42,413.18,103.79,413.18Z"/><path class="cls-2" d="M158.91,413.18h-28.8c-3.63,0-6.58-3.53-6.58-7.88h0c0-4.35,3-7.88,6.58-7.88h28.8c3.64,0,6.59,3.53,6.59,7.88h0C165.5,409.65,162.55,413.18,158.91,413.18Z"/><path class="cls-2" d="M214,413.18h-28.8c-3.63,0-6.58-3.53-6.58-7.88h0c0-4.35,3-7.88,6.58-7.88H214c3.64,0,6.58,3.53,6.58,7.88h0C220.62,409.65,217.68,413.18,214,413.18Z"/><path class="cls-2" d="M269.17,413.18h-28.8c-3.64,0-6.58-3.53-6.58-7.88h0c0-4.35,2.94-7.88,6.58-7.88h28.8c3.63,0,6.58,3.53,6.58,7.88h0C275.75,409.65,272.8,413.18,269.17,413.18Z"/><circle class="cls-4" cx="347.18" cy="379.3" r="13.12"/><circle class="cls-4" cx="382.7" cy="379.3" r="13.12"/><path class="cls-5" d="M430.14,358.15a21.3,21.3,0,0,0-4.26.42,21.16,21.16,0,0,1,0,41.46,21.16,21.16,0,1,0,4.26-41.88Z"/><path class="cls-6" d="M442.78,379.3a21.17,21.17,0,0,0-16.9-20.73,21.16,21.16,0,0,0,0,41.46A21.16,21.16,0,0,0,442.78,379.3Z"/><path class="cls-3" d="M477.35,543.12H60.94c-4.62,0-8.37-4.48-8.37-10V447c0-5.53,3.75-10,8.37-10H477.35c4.62,0,8.37,4.49,8.37,10V533.1C485.72,538.64,482,543.12,477.35,543.12Z"/><path class="cls-2" d="M103.79,467.93H75c-3.64,0-6.58-3.53-6.58-7.88h0c0-4.35,2.94-7.88,6.58-7.88h28.8c3.63,0,6.58,3.53,6.58,7.88h0C110.37,464.4,107.42,467.93,103.79,467.93Z"/><path class="cls-2" d="M158.91,467.93h-28.8c-3.63,0-6.58-3.53-6.58-7.88h0c0-4.35,3-7.88,6.58-7.88h28.8c3.64,0,6.59,3.53,6.59,7.88h0C165.5,464.4,162.55,467.93,158.91,467.93Z"/><path class="cls-2" d="M214,467.93h-28.8c-3.63,0-6.58-3.53-6.58-7.88h0c0-4.35,3-7.88,6.58-7.88H214c3.64,0,6.58,3.53,6.58,7.88h0C220.62,464.4,217.68,467.93,214,467.93Z"/><path class="cls-2" d="M269.17,467.93h-28.8c-3.64,0-6.58-3.53-6.58-7.88h0c0-4.35,2.94-7.88,6.58-7.88h28.8c3.63,0,6.58,3.53,6.58,7.88h0C275.75,464.4,272.8,467.93,269.17,467.93Z"/><path class="cls-2" d="M103.79,497.94H75c-3.64,0-6.58-3.53-6.58-7.88h0c0-4.35,2.94-7.88,6.58-7.88h28.8c3.63,0,6.58,3.53,6.58,7.88h0C110.37,494.41,107.42,497.94,103.79,497.94Z"/><path class="cls-2" d="M158.91,497.94h-28.8c-3.63,0-6.58-3.53-6.58-7.88h0c0-4.35,3-7.88,6.58-7.88h28.8c3.64,0,6.59,3.53,6.59,7.88h0C165.5,494.41,162.55,497.94,158.91,497.94Z"/><path class="cls-2" d="M214,497.94h-28.8c-3.63,0-6.58-3.53-6.58-7.88h0c0-4.35,3-7.88,6.58-7.88H214c3.64,0,6.58,3.53,6.58,7.88h0C220.62,494.41,217.68,497.94,214,497.94Z"/><path class="cls-2" d="M269.17,497.94h-28.8c-3.64,0-6.58-3.53-6.58-7.88h0c0-4.35,2.94-7.88,6.58-7.88h28.8c3.63,0,6.58,3.53,6.58,7.88h0C275.75,494.41,272.8,497.94,269.17,497.94Z"/><path class="cls-2" d="M103.79,528H75c-3.64,0-6.58-3.52-6.58-7.88h0c0-4.35,2.94-7.88,6.58-7.88h28.8c3.63,0,6.58,3.53,6.58,7.88h0C110.37,524.43,107.42,528,103.79,528Z"/><path class="cls-2" d="M158.91,528h-28.8c-3.63,0-6.58-3.52-6.58-7.88h0c0-4.35,3-7.88,6.58-7.88h28.8c3.64,0,6.59,3.53,6.59,7.88h0C165.5,524.43,162.55,528,158.91,528Z"/><path class="cls-2" d="M214,528h-28.8c-3.63,0-6.58-3.52-6.58-7.88h0c0-4.35,3-7.88,6.58-7.88H214c3.64,0,6.58,3.53,6.58,7.88h0C220.62,524.43,217.68,528,214,528Z"/><path class="cls-2" d="M269.17,528h-28.8c-3.64,0-6.58-3.52-6.58-7.88h0c0-4.35,2.94-7.88,6.58-7.88h28.8c3.63,0,6.58,3.53,6.58,7.88h0C275.75,524.43,272.8,528,269.17,528Z"/><circle class="cls-4" cx="347.18" cy="494.08" r="13.12"/><circle class="cls-4" cx="382.7" cy="494.08" r="13.12"/><path class="cls-5" d="M430.14,472.92a21.3,21.3,0,0,0-4.26.43,21.16,21.16,0,0,1,0,41.46,21.16,21.16,0,1,0,4.26-41.89Z"/><path class="cls-6" d="M442.78,494.08a21.16,21.16,0,0,0-16.9-20.73,21.16,21.16,0,0,0,0,41.46A21.16,21.16,0,0,0,442.78,494.08Z"/><path class="cls-3" d="M477.35,657.9H60.94c-4.62,0-8.37-4.49-8.37-10V561.8c0-5.54,3.75-10,8.37-10H477.35c4.62,0,8.37,4.49,8.37,10v86.08C485.72,653.41,482,657.9,477.35,657.9Z"/><path class="cls-2" d="M103.79,582.7H75c-3.64,0-6.58-3.52-6.58-7.88h0c0-4.35,2.94-7.88,6.58-7.88h28.8c3.63,0,6.58,3.53,6.58,7.88h0C110.37,579.18,107.42,582.7,103.79,582.7Z"/><path class="cls-2" d="M158.91,582.7h-28.8c-3.63,0-6.58-3.52-6.58-7.88h0c0-4.35,3-7.88,6.58-7.88h28.8c3.64,0,6.59,3.53,6.59,7.88h0C165.5,579.18,162.55,582.7,158.91,582.7Z"/><path class="cls-2" d="M214,582.7h-28.8c-3.63,0-6.58-3.52-6.58-7.88h0c0-4.35,3-7.88,6.58-7.88H214c3.64,0,6.58,3.53,6.58,7.88h0C220.62,579.18,217.68,582.7,214,582.7Z"/><path class="cls-2" d="M269.17,582.7h-28.8c-3.64,0-6.58-3.52-6.58-7.88h0c0-4.35,2.94-7.88,6.58-7.88h28.8c3.63,0,6.58,3.53,6.58,7.88h0C275.75,579.18,272.8,582.7,269.17,582.7Z"/><path class="cls-2" d="M103.79,612.72H75c-3.64,0-6.58-3.53-6.58-7.88h0c0-4.36,2.94-7.88,6.58-7.88h28.8c3.63,0,6.58,3.52,6.58,7.88h0C110.37,609.19,107.42,612.72,103.79,612.72Z"/><path class="cls-2" d="M158.91,612.72h-28.8c-3.63,0-6.58-3.53-6.58-7.88h0c0-4.36,3-7.88,6.58-7.88h28.8c3.64,0,6.59,3.52,6.59,7.88h0C165.5,609.19,162.55,612.72,158.91,612.72Z"/><path class="cls-2" d="M214,612.72h-28.8c-3.63,0-6.58-3.53-6.58-7.88h0c0-4.36,3-7.88,6.58-7.88H214c3.64,0,6.58,3.52,6.58,7.88h0C220.62,609.19,217.68,612.72,214,612.72Z"/><path class="cls-2" d="M269.17,612.72h-28.8c-3.64,0-6.58-3.53-6.58-7.88h0c0-4.36,2.94-7.88,6.58-7.88h28.8c3.63,0,6.58,3.52,6.58,7.88h0C275.75,609.19,272.8,612.72,269.17,612.72Z"/><path class="cls-2" d="M103.79,642.73H75c-3.64,0-6.58-3.53-6.58-7.88h0c0-4.35,2.94-7.88,6.58-7.88h28.8c3.63,0,6.58,3.53,6.58,7.88h0C110.37,639.2,107.42,642.73,103.79,642.73Z"/><path class="cls-2" d="M158.91,642.73h-28.8c-3.63,0-6.58-3.53-6.58-7.88h0c0-4.35,3-7.88,6.58-7.88h28.8c3.64,0,6.59,3.53,6.59,7.88h0C165.5,639.2,162.55,642.73,158.91,642.73Z"/><path class="cls-2" d="M214,642.73h-28.8c-3.63,0-6.58-3.53-6.58-7.88h0c0-4.35,3-7.88,6.58-7.88H214c3.64,0,6.58,3.53,6.58,7.88h0C220.62,639.2,217.68,642.73,214,642.73Z"/><path class="cls-2" d="M269.17,642.73h-28.8c-3.64,0-6.58-3.53-6.58-7.88h0c0-4.35,2.94-7.88,6.58-7.88h28.8c3.63,0,6.58,3.53,6.58,7.88h0C275.75,639.2,272.8,642.73,269.17,642.73Z"/><circle class="cls-4" cx="347.18" cy="608.85" r="13.12"/><circle class="cls-4" cx="382.7" cy="608.85" r="13.12"/><path class="cls-5" d="M430.14,587.69a21.3,21.3,0,0,0-4.26.43,21.16,21.16,0,0,1,0,41.46,21.16,21.16,0,1,0,4.26-41.89Z"/><path class="cls-6" d="M442.78,608.85a21.16,21.16,0,0,0-16.9-20.73,21.16,21.16,0,0,0,0,41.46A21.16,21.16,0,0,0,442.78,608.85Z"/><path class="cls-7" d="M677.1,505.64l14.61-.87a43.76,43.76,0,0,0,41-46.15l-1.32-22.22a43.77,43.77,0,0,0-46.15-41l-14.61.87a14.79,14.79,0,0,0-13.85,15.6l4.75,79.9A14.79,14.79,0,0,0,677.1,505.64Z"/><path class="cls-7" d="M416.31,476.47l-14.05-4.08a43.77,43.77,0,0,1-29.77-54.07l6.2-21.37a43.77,43.77,0,0,1,54.07-29.77l14.06,4.08a14.79,14.79,0,0,1,10.06,18.27l-22.29,76.88A14.8,14.8,0,0,1,416.31,476.47Z"/><path class="cls-7" d="M694.31,425.42l-23.85-2.66c3.12-27.89-3.92-45.68-22.82-57.7-11.24-7.15-29.68-15.23-81.26-21-29.53-3.31-62.93-5.61-86.76,2.32-22.76,7.57-34.29,23.26-37.38,50.85l-23.85-2.67c4.1-36.6,22.15-60.47,53.66-71,28.23-9.39,64.88-7,97-3.39C634.53,327.53,703.61,342.31,694.31,425.42Z"/><rect class="cls-8" x="456.02" y="445.6" width="173.92" height="71.46" transform="translate(57.38 -57.83) rotate(6.44)"/><path class="cls-7" d="M665.61,731.78l1.86-172.19L652.3,352.12l-28.14,51.55-69.52-7.84-27.52,244a55.1,55.1,0,0,1-60.93,48.58L391.58,680a54.94,54.94,0,0,1-13.11-3.13L374,694.58ZM578.69,480.25A21.9,21.9,0,1,1,598,504.46,21.89,21.89,0,0,1,578.69,480.25Z"/><path class="cls-9" d="M662.73,709.46l4.85-121L534.39,575.34l20.25-179.51-67.95-7.67-14.14-56.31L415.34,531.14,378.47,676.82A54.94,54.94,0,0,0,391.58,680ZM468.1,467.77A21.9,21.9,0,1,1,487.41,492,21.91,21.91,0,0,1,468.1,467.77Z"/><path class="cls-8" d="M668.7,559.72,411,530.65A55.1,55.1,0,0,0,350,579.23l-8.42,74.6a55.1,55.1,0,0,0,48.58,60.93l257.74,29.08a55.1,55.1,0,0,0,60.93-48.58l8.42-74.61A55.11,55.11,0,0,0,668.7,559.72ZM485.37,611.36a5.74,5.74,0,0,1-4.49,5l-30.3,6.53a5.73,5.73,0,0,0-1.2,10.81l28.06,13a5.75,5.75,0,0,1,3.29,5.85l-1.6,14.12a5.74,5.74,0,0,1-8.41,4.41l-60.53-32.4a5.73,5.73,0,0,1-3-5.7l2.11-18.75a5.73,5.73,0,0,1,4.19-4.9l66.23-18.1a5.75,5.75,0,0,1,7.22,6.18Zm164.21,48.93a5.73,5.73,0,0,1-4.19,4.89l-66.23,18.1A5.73,5.73,0,0,1,572,677.1l1.57-14a5.73,5.73,0,0,1,4.51-5l30.25-6.43a5.74,5.74,0,0,0,1.23-10.81l-28.07-13.11a5.75,5.75,0,0,1-3.28-5.84l1.6-14.13a5.74,5.74,0,0,1,8.41-4.42l60.53,32.41a5.71,5.71,0,0,1,3,5.7Z"/><path class="cls-10" d="M565.52,742.54v-16c62.49,0,116.83-26.75,145.36-71.56,27.18-42.67,31-139.29,27-190.16l15.95-1.26c4.34,55,.08,153.73-29.4,200C692.89,713,633.51,742.54,565.52,742.54Z"/><rect class="cls-7" x="727.39" y="417.59" width="36.25" height="63.5" rx="9.63" transform="translate(-25.86 46) rotate(-3.47)"/><rect class="cls-10" x="509.64" y="684.72" width="52.4" height="93.15" rx="26.2" transform="translate(-216.96 1236.48) rotate(-87.63)"/></svg>