<svg id="eelHOrsnM2d1" xmlns="http://www.w3.org/2000/svg" xmlns:xlink="http://www.w3.org/1999/xlink" viewBox="0 0 800 800" shape-rendering="geometricPrecision" text-rendering="geometricPrecision"><style><![CDATA[#eelHOrsnM2d4_to {animation: eelHOrsnM2d4_to__to 3500ms linear infinite normal forwards}@keyframes eelHOrsnM2d4_to__to { 0% {offset-distance: 0%} 14.285714% {offset-distance: 25%} 42.857143% {offset-distance: 50%} 57.142857% {offset-distance: 75%} 71.428571% {offset-distance: 100%} 100% {offset-distance: 100%}} #eelHOrsnM2d13_to {animation: eelHOrsnM2d13_to__to 3500ms linear infinite normal forwards}@keyframes eelHOrsnM2d13_to__to { 0% {transform: translate(277.737129px,255.213600px);animation-timing-function: cubic-bezier(0.420000,0,1,1)} 14.285714% {transform: translate(277.737129px,245.213600px);animation-timing-function: cubic-bezier(0.420000,0,1,1)} 28.571429% {transform: translate(277.737129px,255.213600px);animation-timing-function: cubic-bezier(0.420000,0,1,1)} 42.857143% {transform: translate(277.737129px,245.213600px);animation-timing-function: cubic-bezier(0.420000,0,1,1)} 57.142857% {transform: translate(277.737129px,255.213600px)} 100% {transform: translate(277.737129px,255.213600px)}} #eelHOrsnM2d47 {animation: eelHOrsnM2d47_c_o 3500ms linear infinite normal forwards}@keyframes eelHOrsnM2d47_c_o { 0% {opacity: 0} 5.714286% {opacity: 0} 14.285714% {opacity: 1} 28.571429% {opacity: 0} 42.857143% {opacity: 1} 57.142857% {opacity: 0} 71.428571% {opacity: 1} 74.285714% {opacity: 0} 77.142857% {opacity: 0} 80% {opacity: 1} 82.857143% {opacity: 0} 100% {opacity: 0}} #eelHOrsnM2d48 {animation: eelHOrsnM2d48_c_o 3500ms linear infinite normal forwards}@keyframes eelHOrsnM2d48_c_o { 0% {opacity: 0} 14.285714% {opacity: 0} 28.571429% {opacity: 1} 42.857143% {opacity: 0} 57.142857% {opacity: 1} 71.428571% {opacity: 0} 74.285714% {opacity: 1} 77.142857% {opacity: 1} 80% {opacity: 0} 82.857143% {opacity: 1} 85.714286% {opacity: 0} 100% {opacity: 0}} #eelHOrsnM2d49 {animation: eelHOrsnM2d49_c_o 3500ms linear infinite normal forwards}@keyframes eelHOrsnM2d49_c_o { 0% {opacity: 0} 14.285714% {opacity: 0} 28.571429% {opacity: 1} 42.857143% {opacity: 0} 57.142857% {opacity: 1} 71.428571% {opacity: 0} 74.285714% {opacity: 1} 77.142857% {opacity: 0} 80% {opacity: 0} 82.857143% {opacity: 0} 85.714286% {opacity: 0} 100% {opacity: 0}} #eelHOrsnM2d50_to {animation: eelHOrsnM2d50_to__to 3500ms linear infinite normal forwards}@keyframes eelHOrsnM2d50_to__to { 0% {transform: translate(198.100014px,573.900009px)} 85.714286% {transform: translate(198.100014px,573.900009px)} 88.571429% {transform: translate(198.100014px,567.900009px)} 91.428571% {transform: translate(198.100014px,573.900009px)} 94.285714% {transform: translate(198.100014px,567.900009px)} 97.142857% {transform: translate(198.100014px,573.900009px)} 100% {transform: translate(198.100014px,573.900009px)}}]]></style><g id="eelHOrsnM2d2"><path id="eelHOrsnM2d3" d="M579.900000,487.500000C676,479.900000,747.800000,395.900000,740.200000,299.800000C732.600000,203.700000,648.600000,131.900000,552.500000,139.500000C499.500000,143.700000,451.200000,171.800000,421.500000,215.900000" fill="none" stroke="rgb(255,93,98)" stroke-width="10" stroke-linecap="round" stroke-miterlimit="10" stroke-dasharray="12,26"/><g id="eelHOrsnM2d4_to" style="offset-path:path('M409.950000,226.115210Q471.276139,154.446563,523.873941,143.130271C583.339696,129.452827,656.795220,147.960393,702.954132,203.158716Q746.520438,272.109332,740.750610,334.600000Q705.042753,480.599473,566.043920,487.500000');offset-rotate:0deg"><circle id="eelHOrsnM2d4" r="14.300000" transform="translate(0,0)" fill="rgb(255,81,81)" stroke="none" stroke-width="1"/></g></g><g id="eelHOrsnM2d5"><g id="eelHOrsnM2d6"><line id="eelHOrsnM2d7" x1="173" y1="688.700000" x2="559" y2="688.700000" fill="none" stroke="rgb(19,51,166)" stroke-width="10" stroke-linecap="round" stroke-linejoin="round"/><line id="eelHOrsnM2d8" x1="589.500000" y1="688.700000" x2="600.500000" y2="688.700000" fill="none" stroke="rgb(19,51,166)" stroke-width="10" stroke-linecap="round" stroke-linejoin="round"/><line id="eelHOrsnM2d9" x1="349.300000" y1="602.300000" x2="349.300000" y2="676.800000" fill="none" stroke="rgb(19,51,166)" stroke-width="10" stroke-linecap="round" stroke-linejoin="round"/><circle id="eelHOrsnM2d10" r="23" transform="matrix(1 0 0 1 349.30000000000001 688.89999999999998)" fill="rgb(62,100,255)" stroke="rgb(19,51,166)" stroke-width="10" stroke-linecap="round" stroke-linejoin="round"/><line id="eelHOrsnM2d11" x1="489.400000" y1="599.200000" x2="489.400000" y2="676.800000" fill="none" stroke="rgb(19,51,166)" stroke-width="10" stroke-linecap="round" stroke-linejoin="round"/><circle id="eelHOrsnM2d12" r="23" transform="matrix(1 0 0 1 489.39999999999998 688.89999999999998)" fill="rgb(62,100,255)" stroke="rgb(19,51,166)" stroke-width="10" stroke-linecap="round" stroke-linejoin="round"/></g></g><g id="eelHOrsnM2d13_to" transform="translate(277.737129,255.213600)"><g id="eelHOrsnM2d13" transform="translate(-277.737129,-255.213600)"><path id="eelHOrsnM2d14" d="M135.900000,399.800000C93.400000,399.800000,59,365.300000,59,322.900000C59,289,81.300000,259.100000,113.700000,249.300000C106,180.800000,155.400000,119,223.900000,111.300000C273.200000,105.800000,321.100000,130,345.900000,173C354.200000,169.300000,363.200000,167.400000,372.300000,167.400000C407.500000,167.400000,436.500000,195.300000,437.800000,230.500000C454.300000,236.200000,468.600000,246.700000,479.100000,260.700000C507.900000,299.200000,500.100000,353.700000,461.600000,382.500000C446.500000,393.800000,428.200000,399.900000,409.400000,399.900000L135.900000,399.900000Z" transform="matrix(1 0 0 1 -0.00040435642575 -17.99967651369141)" fill="rgb(42,82,209)" stroke="none" stroke-width="1"/></g></g><g id="eelHOrsnM2d15" transform="matrix(1 0 0 1 0 1)"><g id="eelHOrsnM2d16"><path id="eelHOrsnM2d17" d="M252.200000,400.400000L586.500000,400.400000C594,400.400000,600.100000,406.500000,600.100000,414L600.100000,502.100000C600.100000,509.600000,594,515.700000,586.500000,515.700000L252.200000,515.700000C244.700000,515.700000,238.600000,509.600000,238.600000,502.100000L238.600000,414C238.600000,406.500000,244.700000,400.400000,252.200000,400.400000Z" fill="rgb(62,100,255)" stroke="rgb(19,51,166)" stroke-width="14" stroke-linejoin="round"/><path id="eelHOrsnM2d18" d="M252.200000,515.700000L586.500000,515.700000C594,515.700000,600.100000,521.800000,600.100000,529.300000L600.100000,617.400000C600.100000,624.900000,594,631,586.500000,631L252.200000,631C244.700000,631,238.600000,624.900000,238.600000,617.400000L238.600000,529.300000C238.600000,521.800000,244.700000,515.700000,252.200000,515.700000Z" fill="rgb(62,100,255)" stroke="rgb(19,51,166)" stroke-width="14" stroke-linejoin="round"/><path id="eelHOrsnM2d19" d="M252.200000,285.200000L586.500000,285.200000C594,285.200000,600.100000,291.300000,600.100000,298.800000L600.100000,386.900000C600.100000,394.400000,594,400.500000,586.500000,400.500000L252.200000,400.500000C244.700000,400.500000,238.600000,394.400000,238.600000,386.900000L238.600000,298.800000C238.600000,291.200000,244.700000,285.200000,252.200000,285.200000Z" fill="rgb(62,100,255)" stroke="rgb(19,51,166)" stroke-width="14" stroke-linejoin="round"/></g></g><g id="eelHOrsnM2d20"><g id="eelHOrsnM2d21"><line id="eelHOrsnM2d22" x1="289.700000" y1="443.100000" x2="320" y2="443.100000" fill="none" stroke="rgb(255,255,255)" stroke-width="10" stroke-linecap="round" stroke-linejoin="round"/><line id="eelHOrsnM2d23" x1="342.200000" y1="443.100000" x2="372.500000" y2="443.100000" fill="none" stroke="rgb(255,255,255)" stroke-width="10" stroke-linecap="round" stroke-linejoin="round"/><line id="eelHOrsnM2d24" x1="394.800000" y1="443.100000" x2="425.100000" y2="443.100000" fill="none" stroke="rgb(255,255,255)" stroke-width="10" stroke-linecap="round" stroke-linejoin="round"/><line id="eelHOrsnM2d25" x1="289.700000" y1="471.700000" x2="320" y2="471.700000" fill="none" stroke="rgb(255,255,255)" stroke-width="10" stroke-linecap="round" stroke-linejoin="round"/><line id="eelHOrsnM2d26" x1="342.200000" y1="471.700000" x2="372.500000" y2="471.700000" fill="none" stroke="rgb(255,255,255)" stroke-width="10" stroke-linecap="round" stroke-linejoin="round"/><line id="eelHOrsnM2d27" x1="394.800000" y1="471.700000" x2="425.100000" y2="471.700000" fill="none" stroke="rgb(255,255,255)" stroke-width="10" stroke-linecap="round" stroke-linejoin="round"/><line id="eelHOrsnM2d28" x1="289.700000" y1="559" x2="320" y2="559" fill="none" stroke="rgb(255,255,255)" stroke-width="10" stroke-linecap="round" stroke-linejoin="round"/><line id="eelHOrsnM2d29" x1="342.200000" y1="559" x2="372.500000" y2="559" fill="none" stroke="rgb(255,255,255)" stroke-width="10" stroke-linecap="round" stroke-linejoin="round"/><line id="eelHOrsnM2d30" x1="394.800000" y1="559" x2="425.100000" y2="559" fill="none" stroke="rgb(255,255,255)" stroke-width="10" stroke-linecap="round" stroke-linejoin="round"/><line id="eelHOrsnM2d31" x1="289.700000" y1="587.600000" x2="320" y2="587.600000" fill="none" stroke="rgb(255,255,255)" stroke-width="10" stroke-linecap="round" stroke-linejoin="round"/><line id="eelHOrsnM2d32" x1="342.200000" y1="587.600000" x2="372.500000" y2="587.600000" fill="none" stroke="rgb(255,255,255)" stroke-width="10" stroke-linecap="round" stroke-linejoin="round"/><line id="eelHOrsnM2d33" x1="394.800000" y1="587.600000" x2="425.100000" y2="587.600000" fill="none" stroke="rgb(255,255,255)" stroke-width="10" stroke-linecap="round" stroke-linejoin="round"/><line id="eelHOrsnM2d34" x1="289.700000" y1="327.800000" x2="320" y2="327.800000" fill="none" stroke="rgb(255,255,255)" stroke-width="10" stroke-linecap="round" stroke-linejoin="round"/><line id="eelHOrsnM2d35" x1="342.200000" y1="327.800000" x2="372.500000" y2="327.800000" fill="none" stroke="rgb(255,255,255)" stroke-width="10" stroke-linecap="round" stroke-linejoin="round"/><line id="eelHOrsnM2d36" x1="394.800000" y1="327.800000" x2="425.100000" y2="327.800000" fill="none" stroke="rgb(255,255,255)" stroke-width="10" stroke-linecap="round" stroke-linejoin="round"/><line id="eelHOrsnM2d37" x1="289.700000" y1="356.400000" x2="320" y2="356.400000" fill="none" stroke="rgb(255,255,255)" stroke-width="10" stroke-linecap="round" stroke-linejoin="round"/><line id="eelHOrsnM2d38" x1="342.200000" y1="356.400000" x2="372.500000" y2="356.400000" fill="none" stroke="rgb(255,255,255)" stroke-width="10" stroke-linecap="round" stroke-linejoin="round"/><line id="eelHOrsnM2d39" x1="394.800000" y1="356.400000" x2="425.100000" y2="356.400000" fill="none" stroke="rgb(255,255,255)" stroke-width="10" stroke-linecap="round" stroke-linejoin="round"/></g></g><g id="eelHOrsnM2d40"><circle id="eelHOrsnM2d41" r="14.300000" transform="matrix(1 0 0 1 528 457.39999999999998)" fill="rgb(255,81,81)" stroke="none" stroke-width="1"/><circle id="eelHOrsnM2d42" r="7.500000" transform="matrix(1 0 0 1 489.30000000000001 457.39999999999998)" fill="rgb(255,255,255)" stroke="none" stroke-width="1"/><circle id="eelHOrsnM2d43" r="14.300000" transform="matrix(1 0 0 1 528 342.10000000000002)" fill="rgb(255,81,81)" stroke="none" stroke-width="1"/><circle id="eelHOrsnM2d44" r="7.500000" transform="matrix(1 0 0 1 489.30000000000001 342.10000000000002)" fill="rgb(255,255,255)" stroke="none" stroke-width="1"/><circle id="eelHOrsnM2d45" r="7.500000" transform="matrix(1 0 0 1 489.30000000000001 573.29999999999995)" fill="rgb(255,255,255)" stroke="none" stroke-width="1"/><circle id="eelHOrsnM2d46" r="14.300000" transform="matrix(1 0 0 1 528 573.29999999999995)" fill="rgb(255,81,81)" stroke="none" stroke-width="1"/><circle id="eelHOrsnM2d47" r="14.300000" transform="matrix(1 0 0 1 528 457.39999999999998)" opacity="0" fill="rgb(255,255,255)" stroke="none" stroke-width="1"/><circle id="eelHOrsnM2d48" r="14.300000" transform="matrix(1 0 0 1 528 342.10000000000002)" opacity="0" fill="rgb(255,255,255)" stroke="none" stroke-width="1"/><circle id="eelHOrsnM2d49" r="14.300000" transform="matrix(1 0 0 1 528 573.29999999999995)" opacity="0" fill="rgb(255,255,255)" stroke="none" stroke-width="1"/></g><g id="eelHOrsnM2d50_to" transform="translate(198.100014,573.900009)"><g id="eelHOrsnM2d50" transform="translate(-198.100014,-573.900009)"><g id="eelHOrsnM2d51"><circle id="eelHOrsnM2d52" r="88.100000" transform="matrix(1 0 0 1 198.09999999999999 573.89999999999998)" fill="rgb(255,81,81)" stroke="none" stroke-width="1"/><path id="eelHOrsnM2d53" d="M229.700000,599.200000L175,599.200000C170.800000,599.200000,167.200000,596.300000,166.300000,592.200000L154.600000,539.500000C154.500000,539,154.100000,538.700000,153.600000,538.700000L146,538.700000C143.800000,538.800000,142,537.100000,141.900000,535C141.800000,532.800000,143.500000,531,145.600000,530.900000C145.700000,530.900000,145.900000,530.900000,146,530.900000L153.800000,530.900000C158,530.900000,161.600000,533.800000,162.500000,537.900000L165.500000,551.300000L238.600000,551.300000C243.500000,551.300000,247.400000,555.300000,247.400000,560.200000C247.400000,561,247.300000,561.800000,247,562.600000L238.200000,592.800000C237.100000,596.500000,233.700000,599.100000,229.700000,599.200000ZM167.100000,559L174.100000,590.500000C174.200000,591,174.600000,591.300000,175.100000,591.300000L229.800000,591.300000C230.300000,591.300000,230.700000,591,230.800000,590.500000L239.600000,560.300000C239.800000,559.700000,239.400000,559.100000,238.900000,559C238.800000,559,238.700000,559,238.600000,559L167.100000,559Z" fill="rgb(255,255,255)" stroke="none" stroke-width="1"/><path id="eelHOrsnM2d54" d="M219.900000,588.600000L183.400000,588.600000C181.200000,588.700000,179.400000,587,179.300000,584.900000C179.200000,582.700000,180.900000,580.900000,183,580.800000C183.100000,580.800000,183.300000,580.800000,183.400000,580.800000L219.900000,580.800000C222.100000,580.700000,223.900000,582.400000,224,584.500000C224.100000,586.700000,222.400000,588.500000,220.300000,588.600000C220.200000,588.600000,220,588.600000,219.900000,588.600000Z" fill="rgb(255,255,255)" stroke="none" stroke-width="1"/><path id="eelHOrsnM2d55" d="M182.300000,630.700000C175.400000,630.700000,169.700000,625.100000,169.700000,618.200000C169.700000,611.300000,175.300000,605.700000,182.300000,605.700000C189.200000,605.700000,194.900000,611.300000,194.900000,618.200000L194.900000,618.200000C194.800000,625,189.200000,630.700000,182.300000,630.700000ZM182.300000,613.400000C179.700000,613.400000,177.600000,615.500000,177.600000,618.100000C177.600000,620.700000,179.700000,622.800000,182.300000,622.800000C184.900000,622.800000,187,620.700000,187,618.100000L187,618.100000C187,615.500000,184.900000,613.400000,182.300000,613.400000Z" fill="rgb(255,255,255)" stroke="none" stroke-width="1"/><path id="eelHOrsnM2d56" d="M218.800000,630.700000C211.900000,630.700000,206.200000,625.100000,206.200000,618.200000C206.200000,611.300000,211.800000,605.700000,218.800000,605.700000C225.700000,605.700000,231.400000,611.300000,231.400000,618.200000L231.400000,618.200000C231.300000,625,225.700000,630.700000,218.800000,630.700000ZM218.800000,613.400000C216.200000,613.400000,214.100000,615.500000,214.100000,618.100000C214.100000,620.700000,216.200000,622.800000,218.800000,622.800000C221.400000,622.800000,223.500000,620.700000,223.500000,618.100000L223.500000,618.100000C223.500000,615.500000,221.400000,613.400000,218.800000,613.400000Z" fill="rgb(255,255,255)" stroke="none" stroke-width="1"/></g></g></g></svg>