<svg id="Layer_1" data-name="Layer 1" xmlns="http://www.w3.org/2000/svg" viewBox="0 0 1920 561.81"><defs><style>.cls-1{fill:#3e64ff;}.cls-2{fill:#2a52d1;}.cls-3{fill:#1333a6;}.cls-4{fill:#05004e;}.cls-5{fill:none;stroke:#672f22;stroke-linecap:round;stroke-linejoin:round;stroke-width:2px;}.cls-6{fill:red;}.cls-7{fill:#fff;}</style></defs><title>Footer</title><path class="cls-1" d="M1163.73,557.37l93.46-140.94a14.83,14.83,0,0,1,24.9.28l88.76,140.66Z"/><path class="cls-1" d="M1611.15,533.37l134.32-202.56a14.83,14.83,0,0,1,24.9.28L1898,533.37Z"/><path class="cls-2" d="M1361.83,541.37l207-313.69a14.82,14.82,0,0,1,24.93.28l196.76,313.41Z"/><path class="cls-3" d="M1238.76,551.45c4.38-1.57,429,0,429,0L1468.85,348.21c-16.6-17-42.89-16-58.38,2.14Z"/><path class="cls-4" d="M1920,561.81H0V545c420.66-67.34,1091.67,53.22,1410.19-30.78C1726.28,430.83,1920,498.74,1920,498.74Z"/><line class="cls-5" x1="1440.88" y1="339.03" x2="1440.88" y2="263.73"/><path class="cls-6" d="M1484.61,300.54c-25.88-.21-17.36-6.91-40.67-7.15a1.28,1.28,0,0,1-1.28-1.26v-28a1.27,1.27,0,0,1,1.29-1.27c26.07.21,17.63,6.91,40.67,7.14a1.28,1.28,0,0,1,1.27,1.27v28A1.27,1.27,0,0,1,1484.61,300.54Z"/><path class="cls-7" d="M1473.88,278.83l-5.66-.47.47-5.66a1.3,1.3,0,0,0-1.18-1.4l-4.7-.39a1.3,1.3,0,0,0-1.4,1.18l-.47,5.66-5.66-.47a1.3,1.3,0,0,0-1.4,1.19l-.39,4.69a1.29,1.29,0,0,0,1.18,1.4l5.66.47-.47,5.66a1.3,1.3,0,0,0,1.19,1.41l4.69.39a1.29,1.29,0,0,0,1.4-1.19l.47-5.66,5.66.47a1.29,1.29,0,0,0,1.4-1.18l.4-4.7A1.31,1.31,0,0,0,1473.88,278.83Z"/></svg>