<svg id="Layer_1" data-name="Layer 1" xmlns="http://www.w3.org/2000/svg" viewBox="0 0 800 800"><defs><style>.cls-1,.cls-5{fill:none;}.cls-1{stroke:#ff5d62;stroke-miterlimit:10;stroke-dasharray:12 26;}.cls-1,.cls-3,.cls-5{stroke-linecap:round;stroke-width:10px;}.cls-2{fill:#2a52d1;}.cls-3,.cls-4{fill:#3e64ff;stroke:#1333a6;}.cls-3,.cls-4,.cls-5{stroke-linejoin:round;}.cls-4{stroke-width:14px;}.cls-5{stroke:#fff;}.cls-6{fill:#ff5151;}.cls-7{fill:#fff;}</style></defs><title>Hero-Dedicato</title><path class="cls-1" d="M579.88,487.51A174.57,174.57,0,1,0,421.43,215.88"/><path class="cls-2" d="M135.92,399.77A76.9,76.9,0,0,1,113.8,249.23,124.88,124.88,0,0,1,346.05,172.9a64.72,64.72,0,0,1,26.44-5.57A65.65,65.65,0,0,1,438,230.45a87.9,87.9,0,0,1,41.3,30.17A87,87,0,0,1,409.6,399.77Z"/><line class="cls-3" x1="172.99" y1="688.71" x2="559.02" y2="688.71"/><line class="cls-3" x1="589.53" y1="688.71" x2="600.52" y2="688.71"/><line class="cls-3" x1="349.25" y1="618.12" x2="349.25" y2="676.76"/><circle class="cls-3" cx="349.25" cy="688.86" r="23.01"/><line class="cls-3" x1="489.44" y1="618.12" x2="489.44" y2="676.76"/><circle class="cls-3" cx="489.44" cy="688.86" r="23.01"/><rect class="cls-4" x="238.63" y="400.43" width="361.44" height="115.27" rx="13.57"/><rect class="cls-4" x="238.63" y="515.69" width="361.44" height="115.27" rx="13.57"/><line class="cls-5" x1="289.67" y1="443.08" x2="320" y2="443.08"/><line class="cls-5" x1="342.21" y1="443.08" x2="372.54" y2="443.08"/><line class="cls-5" x1="394.75" y1="443.08" x2="425.08" y2="443.08"/><line class="cls-5" x1="289.67" y1="471.67" x2="320" y2="471.67"/><line class="cls-5" x1="342.21" y1="471.67" x2="372.54" y2="471.67"/><line class="cls-5" x1="394.75" y1="471.67" x2="425.08" y2="471.67"/><line class="cls-5" x1="289.67" y1="559.04" x2="320" y2="559.04"/><line class="cls-5" x1="342.21" y1="559.04" x2="372.54" y2="559.04"/><line class="cls-5" x1="394.75" y1="559.04" x2="425.08" y2="559.04"/><line class="cls-5" x1="289.67" y1="587.62" x2="320" y2="587.62"/><line class="cls-5" x1="342.21" y1="587.62" x2="372.54" y2="587.62"/><line class="cls-5" x1="394.75" y1="587.62" x2="425.08" y2="587.62"/><circle class="cls-6" cx="528.01" cy="457.37" r="14.25"/><circle class="cls-7" cx="489.27" cy="457.37" r="7.5"/><rect class="cls-4" x="238.63" y="285.16" width="361.44" height="115.27" rx="13.57"/><line class="cls-5" x1="289.67" y1="327.82" x2="320" y2="327.82"/><line class="cls-5" x1="342.21" y1="327.82" x2="372.54" y2="327.82"/><line class="cls-5" x1="394.75" y1="327.82" x2="425.08" y2="327.82"/><line class="cls-5" x1="289.67" y1="356.4" x2="320" y2="356.4"/><line class="cls-5" x1="342.21" y1="356.4" x2="372.54" y2="356.4"/><line class="cls-5" x1="394.75" y1="356.4" x2="425.08" y2="356.4"/><circle class="cls-6" cx="528.01" cy="342.11" r="14.25"/><circle class="cls-7" cx="489.27" cy="342.11" r="7.5"/><circle class="cls-7" cx="489.27" cy="573.33" r="7.5"/><circle class="cls-6" cx="528.01" cy="573.33" r="14.25"/><circle class="cls-6" cx="198.13" cy="573.93" r="88.1"/><path class="cls-7" d="M229.74,599.16H175.09a8.82,8.82,0,0,1-8.67-7l-11.66-52.73a1.07,1.07,0,0,0-1-.83H146a3.91,3.91,0,1,1,0-7.81h7.75a8.8,8.8,0,0,1,8.66,7l3,13.4h73.14A8.87,8.87,0,0,1,247,562.53l-8.75,30.22A8.9,8.9,0,0,1,229.74,599.16ZM167.08,559l7,31.52a1.05,1.05,0,0,0,1,.83h54.65a1.07,1.07,0,0,0,1-.77l8.75-30.22a1.06,1.06,0,0,0-1-1.36Z"/><path class="cls-7" d="M219.9,588.56H183.37a3.91,3.91,0,1,1,0-7.81H219.9a3.91,3.91,0,1,1,0,7.81Z"/><path class="cls-7" d="M182.25,630.67a12.55,12.55,0,1,1,12.55-12.55A12.56,12.56,0,0,1,182.25,630.67Zm0-17.29a4.74,4.74,0,1,0,4.74,4.74A4.75,4.75,0,0,0,182.25,613.38Z"/><path class="cls-7" d="M218.79,630.67a12.55,12.55,0,1,1,12.55-12.55A12.56,12.56,0,0,1,218.79,630.67Zm0-17.29a4.74,4.74,0,1,0,4.74,4.74A4.74,4.74,0,0,0,218.79,613.38Z"/></svg>