<svg id="Layer_1" data-name="Layer 1" xmlns="http://www.w3.org/2000/svg" viewBox="0 0 600 600"><defs><style>.cls-1{fill:#3e64ff;}.cls-2{fill:#fff;}.cls-3{fill:#1333a6;}.cls-3,.cls-4,.cls-7,.cls-9{stroke:#3e64ff;}.cls-3,.cls-4,.cls-5,.cls-6,.cls-7,.cls-8,.cls-9{stroke-miterlimit:10;}.cls-3,.cls-4,.cls-6,.cls-7,.cls-8{stroke-width:14px;}.cls-4,.cls-5,.cls-6,.cls-7,.cls-8,.cls-9{fill:none;}.cls-5,.cls-8{stroke:#fff;}.cls-5,.cls-6,.cls-7,.cls-8{stroke-linecap:round;}.cls-5{stroke-width:20px;}.cls-6{stroke:#ff5151;}.cls-9{stroke-width:10px;}</style></defs><title>ICON-app</title><path class="cls-1" d="M145.87,492.08a35.77,35.77,0,0,1-35.73-35.73V313.82h-2.5A30.27,30.27,0,0,1,77.4,283.58V227.2A30.27,30.27,0,0,1,107.64,197h2.5V139.29a35.77,35.77,0,0,1,35.73-35.73H289.69v-3.33a20.45,20.45,0,1,1,20,0v3.33H453.5a35.77,35.77,0,0,1,35.74,35.73V197h2.5A30.28,30.28,0,0,1,522,227.2v56.38a30.28,30.28,0,0,1-30.24,30.24h-2.5V456.35a35.77,35.77,0,0,1-35.74,35.73Z"/><path class="cls-2" d="M299.69,67a15.44,15.44,0,0,1,5,30.05v11.55H453.5a30.77,30.77,0,0,1,30.74,30.73V202h7.5A25.24,25.24,0,0,1,517,227.2v56.38a25.24,25.24,0,0,1-25.24,25.24h-7.5V456.35a30.77,30.77,0,0,1-30.74,30.73H145.87a30.77,30.77,0,0,1-30.73-30.73V308.82h-7.5A25.24,25.24,0,0,1,82.4,283.58V227.2A25.24,25.24,0,0,1,107.64,202h7.5V139.29a30.77,30.77,0,0,1,30.73-30.73H294.69V97a15.44,15.44,0,0,1,5-30.05m0-10A25.44,25.44,0,0,0,280,98.56H145.87a40.77,40.77,0,0,0-40.73,40.73v52.76A35.28,35.28,0,0,0,72.4,227.2v56.38a35.29,35.29,0,0,0,32.74,35.15V456.35a40.77,40.77,0,0,0,40.73,40.73H453.5a40.78,40.78,0,0,0,40.74-40.73V318.73A35.29,35.29,0,0,0,527,283.58V227.2a35.28,35.28,0,0,0-32.74-35.15V139.29A40.78,40.78,0,0,0,453.5,98.56H319.35A25.44,25.44,0,0,0,299.69,57Z"/><path class="cls-1" d="M108.26,202h22.5a0,0,0,0,1,0,0V308.82a0,0,0,0,1,0,0h-22.5A25.24,25.24,0,0,1,83,283.58V227.2A25.24,25.24,0,0,1,108.26,202Z"/><path class="cls-1" d="M495.1,202h22.5a0,0,0,0,1,0,0V308.82a0,0,0,0,1,0,0H495.1a25.24,25.24,0,0,1-25.24-25.24V227.2A25.24,25.24,0,0,1,495.1,202Z" transform="translate(987.46 510.78) rotate(180)"/><rect class="cls-3" x="120.76" y="113.56" width="359.1" height="368.52" rx="25.73"/><rect class="cls-4" x="172.95" y="170.1" width="253.48" height="110.59" rx="25.18"/><line class="cls-5" x1="238.55" y1="207.69" x2="238.55" y2="246.19"/><line class="cls-6" x1="426.43" y1="426.86" x2="426.43" y2="453.76"/><line class="cls-7" x1="399.2" y1="426.86" x2="399.2" y2="453.76"/><line class="cls-7" x1="371.98" y1="426.86" x2="371.98" y2="453.76"/><line class="cls-5" x1="362.07" y1="207.69" x2="362.07" y2="246.19"/><path class="cls-8" d="M361.45,332.19c-41,19-81.8,19.24-122.28,0"/><line class="cls-4" x1="120.76" y1="398.03" x2="479.86" y2="398.03"/><line class="cls-9" x1="300.31" y1="113.56" x2="300.31" y2="89.86"/><circle class="cls-1" cx="300.31" cy="82.41" r="15.45"/></svg>