<svg id="Layer_1" data-name="Layer 1" xmlns="http://www.w3.org/2000/svg" viewBox="0 0 600 600"><defs><style>.cls-1{fill:#2a52d1;}.cls-2{fill:#fffffd;}.cls-3{fill:#1333a6;}.cls-4{fill:#3e64ff;}.cls-5{fill:#05004e;}.cls-6{fill:#fff;}</style></defs><title>ICON-moodrive</title><path class="cls-1" d="M150.54,368a81,81,0,0,1-23.31-158.55,132.72,132.72,0,0,1-.83-14.62c0-72.53,59-131.53,131.52-131.53a131.47,131.47,0,0,1,113.92,65.76,68.33,68.33,0,0,1,27.86-5.87,69.15,69.15,0,0,1,69,66.48,92.52,92.52,0,0,1,43.49,31.78A91.66,91.66,0,0,1,438.78,368Z"/><path class="cls-2" d="M438.78,372.55H150.54a85.52,85.52,0,0,1-28.17-166.27c-.33-3.86-.5-7.69-.5-11.43,0-75,61-136.06,136.05-136.06a136.54,136.54,0,0,1,115.81,64.62,73.64,73.64,0,0,1,99.32,63.05,97.52,97.52,0,0,1,42.78,32.29,96.21,96.21,0,0,1-77.05,153.8ZM257.92,67.85A126.8,126.8,0,0,0,131.73,209l.42,3.76-3.62,1.09a76.46,76.46,0,0,0,22,149.69H438.78a87.15,87.15,0,0,0,69.8-139.32A88.23,88.23,0,0,0,467.23,194l-2.93-1-.12-3.09a64.52,64.52,0,0,0-90.5-56.64L370,134.86l-2-3.52A127.44,127.44,0,0,0,257.92,67.85Z"/><path class="cls-3" d="M406,195.3l16.93,16.93c13.82,13.83,16.22,33.84,5.36,44.7L257.39,427.8a1.34,1.34,0,0,1-.69.38l-81.88,18.51a2.48,2.48,0,0,1-2.76-2.74l18-82.43a1.47,1.47,0,0,1,.37-.71L361.28,189.94C372.15,179.08,392.16,181.48,406,195.3Z"/><path class="cls-4" d="M339.4,208.11l17.79-17.79c13.43-13.44,38.19-10.47,55.28,6.63l10.68,10.68c17.1,17.1,20.07,41.85,6.63,55.29L412,280.7"/><polygon class="cls-5" points="258.73 429.92 188.16 359.35 168.91 449.77 258.73 429.92"/><line class="cls-6" x1="408.08" y1="276.79" x2="341.43" y2="210.13"/><path class="cls-6" d="M408.08,285.6a8.77,8.77,0,0,1-6.22-2.58L335.2,216.36a8.81,8.81,0,1,1,12.45-12.46l66.66,66.66a8.81,8.81,0,0,1-6.23,15Z"/><line class="cls-6" x1="383.26" y1="251.96" x2="339.39" y2="295.83"/><path class="cls-6" d="M339.39,304.64a8.81,8.81,0,0,1-6.23-15L377,245.74a8.81,8.81,0,1,1,12.46,12.45l-43.87,43.87A8.79,8.79,0,0,1,339.39,304.64Z"/><line class="cls-6" x1="319.13" y1="316.1" x2="316.23" y2="318.99"/><path class="cls-6" d="M316.23,327.8a8.81,8.81,0,0,1-6.23-15l2.9-2.9a8.81,8.81,0,0,1,12.46,12.45l-2.9,2.9A8.79,8.79,0,0,1,316.23,327.8Z"/><path class="cls-2" d="M172.77,446a2.29,2.29,0,0,1-.71-2l18-82.43a1.52,1.52,0,0,1,.37-.71L361.28,189.94c10.87-10.86,30.88-8.46,44.7,5.36l16.93,16.93c13.82,13.83,16.22,33.84,5.36,44.7L257.39,427.8a1.34,1.34,0,0,1-.69.38l-81.88,18.51a2.29,2.29,0,0,1-2-.71m-6.26,6.27h0c3.64,3.64,8.49,5.31,12.67,4.37l81.88-18.51a8.91,8.91,0,0,0,4.31-2.33L436.24,264.9c14.3-14.3,11.13-40.74-7.06-58.93L412.24,189c-18.19-18.2-44.63-21.37-58.93-7.07L182.44,352.84a8.91,8.91,0,0,0-2.35,4.38l-18,82.43c-.9,4.16.77,9,4.39,12.6Z"/></svg>