<svg id="Layer_1" data-name="Layer 1" xmlns="http://www.w3.org/2000/svg" viewBox="0 0 600 600"><defs><style>.cls-1{fill:#1333a6;}.cls-2,.cls-3,.cls-9{fill:none;}.cls-2,.cls-3,.cls-4{stroke:#fff;}.cls-2,.cls-4,.cls-9{stroke-linecap:round;}.cls-10,.cls-2,.cls-3,.cls-4{stroke-linejoin:round;}.cls-2,.cls-3,.cls-4,.cls-9{stroke-width:10px;}.cls-4,.cls-8{fill:#2a52d1;}.cls-5{fill:#05004e;}.cls-6{fill:#ff5151;}.cls-7{fill:#fff;}.cls-10,.cls-9{stroke:#1333a6;}.cls-9{stroke-miterlimit:10;}.cls-10{fill:#3e64ff;stroke-width:14px;}</style></defs><title>ICON-condiviso</title><path class="cls-1" d="M240.15,274.41A56,56,0,0,1,224,164.69,90.89,90.89,0,0,1,314.46,63.55a91,91,0,0,1,78.84,45.51A47.12,47.12,0,0,1,412.57,105a47.85,47.85,0,0,1,47.76,46,64,64,0,0,1,30.1,22,63.45,63.45,0,0,1-50.81,101.42Z"/><line class="cls-2" x1="188.6" y1="532.42" x2="426.69" y2="532.42"/><line class="cls-2" x1="448.93" y1="532.42" x2="456.94" y2="532.42"/><line class="cls-3" x1="337.82" y1="480.86" x2="337.82" y2="523.59"/><circle class="cls-4" cx="337.82" cy="532.42" r="16.77"/><rect class="cls-5" x="66.69" y="216.88" width="214.6" height="164.81" rx="8.93"/><path class="cls-1" d="M66.69,235.8H281.3a0,0,0,0,1,0,0v137a8.86,8.86,0,0,1-8.86,8.86H75.55a8.86,8.86,0,0,1-8.86-8.86v-137a0,0,0,0,1,0,0Z"/><circle class="cls-6" cx="77.35" cy="226.7" r="3.35"/><circle class="cls-7" cx="86.51" cy="226.7" r="3.35"/><circle class="cls-7" cx="95.66" cy="226.7" r="3.35"/><rect class="cls-8" x="83.26" y="254.37" width="181.46" height="108.76"/><line class="cls-9" x1="207.17" y1="284.74" x2="103.67" y2="284.74"/><line class="cls-9" x1="103.67" y1="303.72" x2="158.08" y2="303.72"/><line class="cls-9" x1="103.67" y1="322.69" x2="164.5" y2="322.69"/><rect class="cls-10" x="205.36" y="311.88" width="264.92" height="84.49" rx="9.95"/><rect class="cls-10" x="205.36" y="396.37" width="264.92" height="84.49" rx="9.95"/><line class="cls-2" x1="242.77" y1="343.15" x2="265" y2="343.15"/><line class="cls-2" x1="281.28" y1="343.15" x2="303.51" y2="343.15"/><line class="cls-2" x1="319.79" y1="343.15" x2="342.03" y2="343.15"/><line class="cls-2" x1="242.77" y1="364.1" x2="265" y2="364.1"/><line class="cls-2" x1="281.28" y1="364.1" x2="303.51" y2="364.1"/><line class="cls-2" x1="319.79" y1="364.1" x2="342.03" y2="364.1"/><line class="cls-2" x1="242.77" y1="428.14" x2="265" y2="428.14"/><line class="cls-2" x1="281.28" y1="428.14" x2="303.51" y2="428.14"/><line class="cls-2" x1="319.79" y1="428.14" x2="342.03" y2="428.14"/><line class="cls-2" x1="242.77" y1="449.09" x2="265" y2="449.09"/><line class="cls-2" x1="281.28" y1="449.09" x2="303.51" y2="449.09"/><line class="cls-2" x1="319.79" y1="449.09" x2="342.03" y2="449.09"/><circle class="cls-6" cx="417.47" cy="353.62" r="10.44"/><circle class="cls-7" cx="389.07" cy="353.62" r="5.5"/><circle class="cls-7" cx="389.07" cy="438.61" r="5.5"/><circle class="cls-6" cx="417.47" cy="438.61" r="10.44"/><path class="cls-7" d="M314.46,62.65a91,91,0,0,1,78.84,45.5,47.28,47.28,0,0,1,19.27-4.05,47.84,47.84,0,0,1,47.76,46,64,64,0,0,1,30.1,22,63.44,63.44,0,0,1-50.81,101.42H281.3v31.26h179a16.17,16.17,0,0,1,16.16,16.16v64.59a16.11,16.11,0,0,1-3.45,10,16.06,16.06,0,0,1,3.45,9.94V470a16.18,16.18,0,0,1-16.16,16.16h-245A16.18,16.18,0,0,1,199.15,470v-64.6a16,16,0,0,1,3.45-9.94,16,16,0,0,1-3.45-10V380.8H75.55a8.86,8.86,0,0,1-8.86-8.86v-137h0v-10A8.93,8.93,0,0,1,75.62,216H184.14A55.94,55.94,0,0,1,224,163.79a89.74,89.74,0,0,1-.58-10.12,91.12,91.12,0,0,1,91-91m0-14a105.13,105.13,0,0,0-105,105v.81A69.82,69.82,0,0,0,171.83,202H75.62a23,23,0,0,0-22.93,22.93v147A22.89,22.89,0,0,0,75.55,394.8H186.63c.07.22.14.45.22.67a30,30,0,0,0-1.7,9.94V470a30.19,30.19,0,0,0,30.16,30.16h245A30.19,30.19,0,0,0,490.5,470v-64.6a30.22,30.22,0,0,0-1.7-9.94,30.33,30.33,0,0,0,1.7-10V320.93a30.19,30.19,0,0,0-30.16-30.16h-165v-3.26H439.62a77.53,77.53,0,0,0,77.44-77.44,76.76,76.76,0,0,0-15.42-46.37,78.61,78.61,0,0,0-28.35-23.36,61.88,61.88,0,0,0-74.14-48.78,104.95,104.95,0,0,0-84.69-42.91Z"/></svg>