<svg id="Layer_1" data-name="Layer 1" xmlns="http://www.w3.org/2000/svg" viewBox="0 0 600 600"><defs><style>.cls-1{font-size:70px;font-family:Avenir-Book, Avenir;}.cls-2{fill:#1333a6;}.cls-3,.cls-4{fill:none;}.cls-3,.cls-4,.cls-5{stroke:#fff;stroke-width:10px;}.cls-3,.cls-5{stroke-linecap:round;}.cls-3,.cls-4,.cls-5,.cls-7{stroke-linejoin:round;}.cls-5{fill:#2a52d1;}.cls-6{fill:#fff;}.cls-7{fill:#3e64ff;stroke:#1333a6;stroke-width:14px;}.cls-8{fill:#ff5151;}</style></defs><title>ICON-Dedicato</title><text class="cls-1" transform="translate(0.36 -48.91)">Cloud dedicato</text><path class="cls-2" d="M124.83,277.2a56.37,56.37,0,0,1-16.22-110.35,90.52,90.52,0,0,1-.58-10.18A91.54,91.54,0,0,1,278.84,110.9a47.54,47.54,0,0,1,19.39-4.08,48.12,48.12,0,0,1,48,46.27,64.4,64.4,0,0,1,30.27,22.11,63.81,63.81,0,0,1-51.1,102Z"/><line class="cls-3" x1="152" y1="498.98" x2="434.95" y2="498.98"/><line class="cls-3" x1="457.31" y1="498.98" x2="465.36" y2="498.98"/><line class="cls-4" x1="281.19" y1="447.24" x2="281.19" y2="490.22"/><circle class="cls-5" cx="281.19" cy="499.09" r="16.87"/><line class="cls-4" x1="383.95" y1="447.24" x2="383.95" y2="490.22"/><circle class="cls-5" cx="383.95" cy="499.09" r="16.87"/><path class="cls-6" d="M199.56,65.14a91.5,91.5,0,0,1,79.28,45.76,47.54,47.54,0,0,1,19.39-4.08,48.12,48.12,0,0,1,48,46.27A64,64,0,0,1,383.05,186h72.73A16.27,16.27,0,0,1,472,202.23v65a16.19,16.19,0,0,1-3.46,10,16.18,16.18,0,0,1,3.46,10v65a16.18,16.18,0,0,1-3.46,10,16.19,16.19,0,0,1,3.46,10v65a16.27,16.27,0,0,1-16.25,16.25H209.36a16.27,16.27,0,0,1-16.25-16.25v-65a16.13,16.13,0,0,1,3.47-10,16.13,16.13,0,0,1-3.47-10v-65a16.13,16.13,0,0,1,3.47-10H124.83a56.37,56.37,0,0,1-16.22-110.35,90.52,90.52,0,0,1-.58-10.18,91.63,91.63,0,0,1,91.53-91.53m0-14A105.65,105.65,0,0,0,94,156.67v.87a70.36,70.36,0,0,0-39.56,63.3,70.44,70.44,0,0,0,70.36,70.36h54.28v61a30.08,30.08,0,0,0,1.72,10,30.14,30.14,0,0,0-1.72,10v65a30.28,30.28,0,0,0,30.25,30.25H455.78A30.28,30.28,0,0,0,486,437.13v-65a30.38,30.38,0,0,0-1.71-10,30.32,30.32,0,0,0,1.71-10v-65a30.32,30.32,0,0,0-1.71-10,30.38,30.38,0,0,0,1.71-10v-65A30.28,30.28,0,0,0,455.78,172H391.29c-1.11-1.77-2.3-3.5-3.56-5.17a79,79,0,0,0-28.51-23.48,62.14,62.14,0,0,0-74.52-49,105.48,105.48,0,0,0-85.14-43.16Z"/><rect class="cls-7" x="200.11" y="277.68" width="264.92" height="84.49" rx="9.95"/><rect class="cls-7" x="200.11" y="362.16" width="264.92" height="84.49" rx="9.95"/><line class="cls-3" x1="237.52" y1="308.94" x2="259.75" y2="308.94"/><line class="cls-3" x1="276.03" y1="308.94" x2="298.26" y2="308.94"/><line class="cls-3" x1="314.54" y1="308.94" x2="336.78" y2="308.94"/><line class="cls-3" x1="237.52" y1="329.89" x2="259.75" y2="329.89"/><line class="cls-3" x1="276.03" y1="329.89" x2="298.26" y2="329.89"/><line class="cls-3" x1="314.54" y1="329.89" x2="336.78" y2="329.89"/><line class="cls-3" x1="237.52" y1="393.93" x2="259.75" y2="393.93"/><line class="cls-3" x1="276.03" y1="393.93" x2="298.26" y2="393.93"/><line class="cls-3" x1="314.54" y1="393.93" x2="336.78" y2="393.93"/><line class="cls-3" x1="237.52" y1="414.88" x2="259.75" y2="414.88"/><line class="cls-3" x1="276.03" y1="414.88" x2="298.26" y2="414.88"/><line class="cls-3" x1="314.54" y1="414.88" x2="336.78" y2="414.88"/><circle class="cls-8" cx="412.22" cy="319.42" r="10.44"/><circle class="cls-6" cx="383.82" cy="319.42" r="5.5"/><rect class="cls-7" x="200.11" y="193.19" width="264.92" height="84.49" rx="9.95"/><line class="cls-3" x1="237.52" y1="224.45" x2="259.75" y2="224.45"/><line class="cls-3" x1="276.03" y1="224.45" x2="298.26" y2="224.45"/><line class="cls-3" x1="314.54" y1="224.45" x2="336.78" y2="224.45"/><line class="cls-3" x1="237.52" y1="245.4" x2="259.75" y2="245.4"/><line class="cls-3" x1="276.03" y1="245.4" x2="298.26" y2="245.4"/><line class="cls-3" x1="314.54" y1="245.4" x2="336.78" y2="245.4"/><circle class="cls-8" cx="412.22" cy="234.93" r="10.44"/><circle class="cls-6" cx="383.82" cy="234.93" r="5.5"/><circle class="cls-6" cx="383.82" cy="404.41" r="5.5"/><circle class="cls-8" cx="412.22" cy="404.41" r="10.44"/><circle class="cls-8" cx="164.01" cy="398.44" r="80.99"/><path class="cls-6" d="M193.07,421.63H142.83a8.1,8.1,0,0,1-8-6.4l-10.72-48.47a1,1,0,0,0-1-.76h-7.13a3.59,3.59,0,0,1,0-7.18h7.13a8.1,8.1,0,0,1,8,6.39l2.73,12.32h67.23A8.17,8.17,0,0,1,209,388l-8,27.79A8.21,8.21,0,0,1,193.07,421.63Zm-57.6-36.92,6.41,29a1,1,0,0,0,1,.77h50.24a1,1,0,0,0,.94-.71l8-27.78a1,1,0,0,0-.16-.86.94.94,0,0,0-.78-.39Z"/><path class="cls-6" d="M184,411.89H150.44a3.59,3.59,0,0,1,0-7.18H184a3.59,3.59,0,0,1,0,7.18Z"/><path class="cls-6" d="M149.42,450.6A11.54,11.54,0,1,1,161,439.06,11.56,11.56,0,0,1,149.42,450.6Zm0-15.9a4.36,4.36,0,1,0,4.36,4.36A4.37,4.37,0,0,0,149.42,434.7Z"/><path class="cls-6" d="M183,450.6a11.54,11.54,0,1,1,11.54-11.54A11.55,11.55,0,0,1,183,450.6Zm0-15.9a4.36,4.36,0,1,0,4.36,4.36A4.37,4.37,0,0,0,183,434.7Z"/></svg>