<svg id="Layer_1" data-name="Layer 1" xmlns="http://www.w3.org/2000/svg" viewBox="0 0 300 300"><defs><style>.cls-1{fill:#1333a6;}.cls-2{fill:#3e64ff;}.cls-3{fill:#fff;}.cls-4{fill:#ff5151;}</style></defs><title>MINIICONA-dedicato</title><path class="cls-1" d="M113.45,154A35.82,35.82,0,0,1,103.14,83.9a59.27,59.27,0,0,1-.37-6.46A58.17,58.17,0,0,1,211.32,48.35a30.22,30.22,0,0,1,12.32-2.59,30.57,30.57,0,0,1,30.52,29.4,40.87,40.87,0,0,1,19.23,14A40.54,40.54,0,0,1,240.92,154Z"/><rect class="cls-2" x="25.3" y="153.91" width="193.83" height="61.81" rx="7.28"/><path class="cls-1" d="M211.85,220.85H32.57a12.41,12.41,0,0,1-12.39-12.4V161.19a12.41,12.41,0,0,1,12.39-12.4H211.85a12.42,12.42,0,0,1,12.4,12.4v47.26A12.42,12.42,0,0,1,211.85,220.85ZM32.57,159a2.15,2.15,0,0,0-2.15,2.15v47.26a2.16,2.16,0,0,0,2.15,2.16H211.85a2.16,2.16,0,0,0,2.15-2.16V161.19a2.15,2.15,0,0,0-2.15-2.15Z"/><rect class="cls-2" x="25.3" y="215.73" width="193.83" height="61.81" rx="7.28"/><path class="cls-1" d="M211.85,282.66H32.57a12.41,12.41,0,0,1-12.39-12.4V223a12.41,12.41,0,0,1,12.39-12.39H211.85A12.41,12.41,0,0,1,224.25,223v47.26A12.42,12.42,0,0,1,211.85,282.66ZM32.57,220.85A2.16,2.16,0,0,0,30.42,223v47.26a2.16,2.16,0,0,0,2.15,2.16H211.85a2.16,2.16,0,0,0,2.15-2.16V223a2.15,2.15,0,0,0-2.15-2.15Z"/><path class="cls-3" d="M68.93,180.45H52.67a3.66,3.66,0,0,1,0-7.32H68.93a3.66,3.66,0,0,1,0,7.32Z"/><path class="cls-3" d="M97.11,180.45H80.84a3.66,3.66,0,0,1,0-7.32H97.11a3.66,3.66,0,0,1,0,7.32Z"/><path class="cls-3" d="M125.29,180.45H109a3.66,3.66,0,0,1,0-7.32h16.27a3.66,3.66,0,0,1,0,7.32Z"/><path class="cls-3" d="M68.93,195.77H52.67a3.66,3.66,0,1,1,0-7.31H68.93a3.66,3.66,0,1,1,0,7.31Z"/><path class="cls-3" d="M97.11,195.77H80.84a3.66,3.66,0,0,1,0-7.31H97.11a3.66,3.66,0,1,1,0,7.31Z"/><path class="cls-3" d="M125.29,195.77H109a3.66,3.66,0,1,1,0-7.31h16.27a3.66,3.66,0,1,1,0,7.31Z"/><path class="cls-3" d="M68.93,242.63H52.67a3.66,3.66,0,0,1,0-7.32H68.93a3.66,3.66,0,0,1,0,7.32Z"/><path class="cls-3" d="M97.11,242.63H80.84a3.66,3.66,0,0,1,0-7.32H97.11a3.66,3.66,0,0,1,0,7.32Z"/><path class="cls-3" d="M125.29,242.63H109a3.66,3.66,0,0,1,0-7.32h16.27a3.66,3.66,0,0,1,0,7.32Z"/><path class="cls-3" d="M68.93,258H52.67a3.66,3.66,0,0,1,0-7.32H68.93a3.66,3.66,0,0,1,0,7.32Z"/><path class="cls-3" d="M97.11,258H80.84a3.66,3.66,0,0,1,0-7.32H97.11a3.66,3.66,0,0,1,0,7.32Z"/><path class="cls-3" d="M125.29,258H109a3.66,3.66,0,0,1,0-7.32h16.27a3.66,3.66,0,0,1,0,7.32Z"/><circle class="cls-4" cx="180.48" cy="184.45" r="7.64"/><circle class="cls-3" cx="159.71" cy="184.45" r="4.02"/><rect class="cls-2" x="25.3" y="92.1" width="193.83" height="61.81" rx="7.28"/><path class="cls-1" d="M211.85,159H32.57a12.41,12.41,0,0,1-12.39-12.4V99.38A12.41,12.41,0,0,1,32.57,87H211.85a12.42,12.42,0,0,1,12.4,12.4v47.26A12.42,12.42,0,0,1,211.85,159ZM32.57,97.22a2.16,2.16,0,0,0-2.15,2.16v47.26a2.15,2.15,0,0,0,2.15,2.15H211.85a2.15,2.15,0,0,0,2.15-2.15V99.38a2.16,2.16,0,0,0-2.15-2.16Z"/><path class="cls-3" d="M68.93,118.63H52.67a3.66,3.66,0,1,1,0-7.31H68.93a3.66,3.66,0,1,1,0,7.31Z"/><path class="cls-3" d="M97.11,118.63H80.84a3.66,3.66,0,0,1,0-7.31H97.11a3.66,3.66,0,1,1,0,7.31Z"/><path class="cls-3" d="M125.29,118.63H109a3.66,3.66,0,1,1,0-7.31h16.27a3.66,3.66,0,1,1,0,7.31Z"/><path class="cls-3" d="M68.93,134H52.67a3.66,3.66,0,1,1,0-7.32H68.93a3.66,3.66,0,0,1,0,7.32Z"/><path class="cls-3" d="M97.11,134H80.84a3.66,3.66,0,0,1,0-7.32H97.11a3.66,3.66,0,0,1,0,7.32Z"/><path class="cls-3" d="M125.29,134H109a3.66,3.66,0,1,1,0-7.32h16.27a3.66,3.66,0,0,1,0,7.32Z"/><circle class="cls-4" cx="180.48" cy="122.64" r="7.64"/><circle class="cls-3" cx="159.71" cy="122.64" r="4.02"/><circle class="cls-3" cx="159.71" cy="246.63" r="4.02"/><circle class="cls-4" cx="180.48" cy="246.63" r="7.64"/></svg>