<?xml version="1.0" encoding="utf-8"?>
<!-- Generator: Adobe Illustrator 22.1.0, SVG Export Plug-In . SVG Version: 6.00 Build 0)  -->
<svg version="1.1" xmlns="http://www.w3.org/2000/svg" xmlns:xlink="http://www.w3.org/1999/xlink" x="0px" y="0px"
	 viewBox="0 0 1919.3 504.1" style="enable-background:new 0 0 1919.3 504.1;" xml:space="preserve">
<style type="text/css">
	.st0{fill:#192D6E;}
	.st1{fill:#D4E1E2;}
	.st2{fill:#38323C;}
	.st3{fill:#384042;}
	.st4{fill:#FFFFFF;}
	.st5{fill:#3E64FF;}
	.st6{fill:#2A52D1;}
	.st7{fill:#1333A6;}
	.st8{fill:#05004E;}
	.st9{fill:#FF5151;}
	.st10{fill:url(#SVGID_1_);}
	.st11{fill:none;stroke:#672F22;stroke-width:2;stroke-linecap:round;stroke-linejoin:round;stroke-miterlimit:10;}
	.st12{fill:#FF0000;}
	.st13{clip-path:url(#SVGID_3_);fill:#F2F0E9;}
	.st14{clip-path:url(#SVGID_3_);}
	.st15{fill:#DDDCD9;}
	.st16{fill:#FF9A8D;}
	.st17{fill:#663626;}
	.st18{fill:#282828;}
	.st19{fill:#393939;}
	.st20{fill:#E5E5E5;}
	.st21{fill:none;}
	.st22{fill:#DEA882;}
	.st23{fill:#FFDDC5;}
	.st24{fill:#8B674F;}
	.st25{fill:none;stroke:#1333A6;stroke-width:30;stroke-linecap:round;stroke-linejoin:round;}
	.st26{fill:none;stroke:#1333A6;stroke-width:30;stroke-linecap:round;stroke-linejoin:round;stroke-dasharray:40.2649,60.3974;}
	.st27{fill:none;stroke:#1333A6;stroke-width:30;stroke-linecap:round;stroke-linejoin:round;stroke-miterlimit:10;}
	.st28{fill:#908E8A;}
	.st29{fill:none;stroke:#F1EFE8;stroke-width:5;stroke-linecap:round;stroke-linejoin:round;stroke-miterlimit:10;}
</style>
<g id="Layer_1">
	<path class="st6" d="M1785.8,175.7c3.8-19.8,2.9-39.4-2.5-55.1c-5.9-17.2-16.5-28.1-29.8-30.6c-13.3-2.5-27.2,3.7-39,17.5
		c-10.8,12.6-18.8,30.5-22.6,50.3c-4.5,23.7,2.1,64.1,8.4,93.5l-31,200.3c-7.4-0.1-12.5,1.1-12.9,3.5c-0.7,3.8,10.5,9.2,25.2,12
		c14.6,2.8,27.1,1.9,27.8-1.9c0.5-2.5-4.1-5.7-11.4-8.3l45.6-197.3C1760.1,234.6,1781.2,199.4,1785.8,175.7z M1746.2,127.9
		c6.1,1.2,12.2,17.1,7.9,39.5c-2.6,13.4-15.4,36.3-25.5,52.8c-3.4-19.1-6.8-45.1-4.3-58.5v0C1728.6,139.3,1740.2,126.7,1746.2,127.9
		z"/>
	<g>
		<g>
			<line class="st25" x1="1152.1" y1="339.8" x2="1132.1" y2="339.8"/>
			<path class="st26" d="M1071.7,339.8h-213c-113.6,0-117.6-125.6,1-125.6H1127c107.7,0,103-125.6,0-125.6H832.1
				c-104.9,0-134.8,62.6-223.2,80.5"/>
			<path class="st25" d="M579,173.1c-6.4,0.5-13,0.7-20,0.7"/>
		</g>
	</g>
	<path class="st27" d="M501,173.8c-37.3,2-117.3,0.3-217.3-34.3C199.9,110.4,123,42.2-1,80.8"/>
	<path class="st27" d="M1208,339.2c199,0,249-289,529.2-178.4"/>
</g>
<g id="Layer_2">
</g>
</svg>
