<svg id="Layer_1" data-name="Layer 1" xmlns="http://www.w3.org/2000/svg" viewBox="0 0 920 736.72"><defs><style>.cls-1{fill:#05004e;}.cls-10,.cls-14,.cls-2,.cls-3{fill:none;}.cls-2{stroke:#fff;}.cls-10,.cls-2,.cls-3{stroke-linecap:round;stroke-miterlimit:10;}.cls-2,.cls-3{stroke-width:10px;}.cls-3{stroke:#ff5d62;stroke-dasharray:12 26;}.cls-4{fill:#3e64ff;}.cls-5{fill:#fff;}.cls-6{fill:#f8ffff;}.cls-7{fill:#1333a6;}.cls-8{fill:#2a52d1;}.cls-9{fill:#ff5151;}.cls-10{stroke:#1333a6;stroke-width:14px;}.cls-11{fill:#393939;}.cls-12{fill:#e4e4e4;}.cls-13{fill:#ff998c;}</style></defs><title>Hero-Home</title><rect class="cls-1" x="217.5" y="506.6" width="33.06" height="193.65" rx="3.8"/><rect class="cls-1" x="184.45" y="519.79" width="33.06" height="179.99" rx="3.8"/><rect class="cls-1" x="151.39" y="480.96" width="33.06" height="218.81" rx="3.8"/><path class="cls-1" d="M101,698.52l16.94,1.85a3.8,3.8,0,0,0,4.15-3.1L152.62,526.5a3.8,3.8,0,0,0-3.32-4.44l-16.94-1.85a3.79,3.79,0,0,0-4.15,3.1L97.63,694.07A3.81,3.81,0,0,0,101,698.52Z"/><line class="cls-2" x1="-14.92" y1="705.6" x2="906.08" y2="705.6"/><path class="cls-3" d="M185.39,629.76A248.76,248.76,0,0,1,53.41,410c0-137.4,111.38-248.78,248.79-248.78"/><path class="cls-3" d="M313.21,181.38A228.89,228.89,0,0,1,522.05,46.25c126.39,0,219.65,93.26,219.65,219.66"/><path class="cls-3" d="M296.34,497.91a156.6,156.6,0,0,1,0-313.19"/><rect class="cls-1" x="605.21" y="238.79" width="6.48" height="235.26"/><rect class="cls-1" x="722.46" y="238.79" width="6.48" height="237.38"/><rect class="cls-1" x="738.16" y="238.79" width="6.48" height="233.13"/><rect class="cls-1" x="855.27" y="238.79" width="6.48" height="234.2"/><path class="cls-4" d="M879.14,300.1H589.43c-3.22,0-5.82-3.12-5.82-7V233.24c0-3.85,2.6-7,5.82-7H879.14c3.22,0,5.83,3.13,5.83,7v59.89C885,297,882.36,300.1,879.14,300.1Z"/><path class="cls-1" d="M619.24,247.78h-20c-2.53,0-4.58-2.45-4.58-5.48h0c0-3,2-5.48,4.58-5.48h20c2.53,0,4.58,2.45,4.58,5.48h0C623.82,245.33,621.77,247.78,619.24,247.78Z"/><path class="cls-1" d="M657.59,247.78h-20c-2.53,0-4.58-2.45-4.58-5.48h0c0-3,2-5.48,4.58-5.48h20c2.53,0,4.58,2.45,4.58,5.48h0C662.17,245.33,660.12,247.78,657.59,247.78Z"/><path class="cls-1" d="M696,247.78h-20c-2.53,0-4.58-2.45-4.58-5.48h0c0-3,2-5.48,4.58-5.48h20c2.53,0,4.58,2.45,4.58,5.48h0C700.53,245.33,698.48,247.78,696,247.78Z"/><path class="cls-1" d="M734.3,247.78h-20c-2.53,0-4.58-2.45-4.58-5.48h0c0-3,2-5.48,4.58-5.48h20c2.53,0,4.58,2.45,4.58,5.48h0C738.88,245.33,736.83,247.78,734.3,247.78Z"/><path class="cls-1" d="M619.24,268.66h-20c-2.53,0-4.58-2.45-4.58-5.48h0c0-3,2-5.48,4.58-5.48h20c2.53,0,4.58,2.45,4.58,5.48h0C623.82,266.21,621.77,268.66,619.24,268.66Z"/><path class="cls-1" d="M657.59,268.66h-20c-2.53,0-4.58-2.45-4.58-5.48h0c0-3,2-5.48,4.58-5.48h20c2.53,0,4.58,2.45,4.58,5.48h0C662.17,266.21,660.12,268.66,657.59,268.66Z"/><path class="cls-1" d="M696,268.66h-20c-2.53,0-4.58-2.45-4.58-5.48h0c0-3,2-5.48,4.58-5.48h20c2.53,0,4.58,2.45,4.58,5.48h0C700.53,266.21,698.48,268.66,696,268.66Z"/><path class="cls-1" d="M734.3,268.66h-20c-2.53,0-4.58-2.45-4.58-5.48h0c0-3,2-5.48,4.58-5.48h20c2.53,0,4.58,2.45,4.58,5.48h0C738.88,266.21,736.83,268.66,734.3,268.66Z"/><path class="cls-1" d="M619.24,289.55h-20c-2.53,0-4.58-2.46-4.58-5.49h0c0-3,2-5.48,4.58-5.48h20c2.53,0,4.58,2.46,4.58,5.48h0C623.82,287.09,621.77,289.55,619.24,289.55Z"/><path class="cls-1" d="M657.59,289.55h-20c-2.53,0-4.58-2.46-4.58-5.49h0c0-3,2-5.48,4.58-5.48h20c2.53,0,4.58,2.46,4.58,5.48h0C662.17,287.09,660.12,289.55,657.59,289.55Z"/><path class="cls-1" d="M696,289.55h-20c-2.53,0-4.58-2.46-4.58-5.49h0c0-3,2-5.48,4.58-5.48h20c2.53,0,4.58,2.46,4.58,5.48h0C700.53,287.09,698.48,289.55,696,289.55Z"/><path class="cls-1" d="M734.3,289.55h-20c-2.53,0-4.58-2.46-4.58-5.49h0c0-3,2-5.48,4.58-5.48h20c2.53,0,4.58,2.46,4.58,5.48h0C738.88,287.09,736.83,289.55,734.3,289.55Z"/><circle class="cls-5" cx="788.58" cy="265.98" r="9.13"/><circle class="cls-5" cx="813.29" cy="265.98" r="9.13"/><path class="cls-6" d="M846.3,251.26a15.08,15.08,0,0,0-3,.29,14.73,14.73,0,0,1,0,28.85,15.08,15.08,0,0,0,3,.3,14.72,14.72,0,1,0,0-29.44Z"/><path class="cls-7" d="M855.09,266a12,12,0,1,0-11.75,14.42A14.72,14.72,0,0,0,855.09,266Z"/><path class="cls-4" d="M879.14,380H589.43c-3.22,0-5.82-3.12-5.82-7V313.09c0-3.85,2.6-7,5.82-7H879.14c3.22,0,5.83,3.12,5.83,7V373C885,376.83,882.36,380,879.14,380Z"/><path class="cls-1" d="M619.24,327.64h-20c-2.53,0-4.58-2.46-4.58-5.49h0c0-3,2-5.48,4.58-5.48h20c2.53,0,4.58,2.46,4.58,5.48h0C623.82,325.18,621.77,327.64,619.24,327.64Z"/><path class="cls-1" d="M657.59,327.64h-20c-2.53,0-4.58-2.46-4.58-5.49h0c0-3,2-5.48,4.58-5.48h20c2.53,0,4.58,2.46,4.58,5.48h0C662.17,325.18,660.12,327.64,657.59,327.64Z"/><path class="cls-1" d="M696,327.64h-20c-2.53,0-4.58-2.46-4.58-5.49h0c0-3,2-5.48,4.58-5.48h20c2.53,0,4.58,2.46,4.58,5.48h0C700.53,325.18,698.48,327.64,696,327.64Z"/><path class="cls-1" d="M734.3,327.64h-20c-2.53,0-4.58-2.46-4.58-5.49h0c0-3,2-5.48,4.58-5.48h20c2.53,0,4.58,2.46,4.58,5.48h0C738.88,325.18,736.83,327.64,734.3,327.64Z"/><path class="cls-1" d="M619.24,348.52h-20c-2.53,0-4.58-2.46-4.58-5.48h0c0-3,2-5.49,4.58-5.49h20c2.53,0,4.58,2.46,4.58,5.49h0C623.82,346.06,621.77,348.52,619.24,348.52Z"/><path class="cls-1" d="M657.59,348.52h-20c-2.53,0-4.58-2.46-4.58-5.48h0c0-3,2-5.49,4.58-5.49h20c2.53,0,4.58,2.46,4.58,5.49h0C662.17,346.06,660.12,348.52,657.59,348.52Z"/><path class="cls-1" d="M696,348.52h-20c-2.53,0-4.58-2.46-4.58-5.48h0c0-3,2-5.49,4.58-5.49h20c2.53,0,4.58,2.46,4.58,5.49h0C700.53,346.06,698.48,348.52,696,348.52Z"/><path class="cls-1" d="M734.3,348.52h-20c-2.53,0-4.58-2.46-4.58-5.48h0c0-3,2-5.49,4.58-5.49h20c2.53,0,4.58,2.46,4.58,5.49h0C738.88,346.06,736.83,348.52,734.3,348.52Z"/><path class="cls-1" d="M619.24,369.4h-20c-2.53,0-4.58-2.46-4.58-5.48h0c0-3,2-5.49,4.58-5.49h20c2.53,0,4.58,2.46,4.58,5.49h0C623.82,366.94,621.77,369.4,619.24,369.4Z"/><path class="cls-1" d="M657.59,369.4h-20c-2.53,0-4.58-2.46-4.58-5.48h0c0-3,2-5.49,4.58-5.49h20c2.53,0,4.58,2.46,4.58,5.49h0C662.17,366.94,660.12,369.4,657.59,369.4Z"/><path class="cls-1" d="M696,369.4h-20c-2.53,0-4.58-2.46-4.58-5.48h0c0-3,2-5.49,4.58-5.49h20c2.53,0,4.58,2.46,4.58,5.49h0C700.53,366.94,698.48,369.4,696,369.4Z"/><path class="cls-1" d="M734.3,369.4h-20c-2.53,0-4.58-2.46-4.58-5.48h0c0-3,2-5.49,4.58-5.49h20c2.53,0,4.58,2.46,4.58,5.49h0C738.88,366.94,736.83,369.4,734.3,369.4Z"/><circle class="cls-5" cx="788.58" cy="345.83" r="9.13"/><circle class="cls-5" cx="813.29" cy="345.83" r="9.13"/><path class="cls-6" d="M846.3,331.11a14.36,14.36,0,0,0-3,.3,14.72,14.72,0,0,1,0,28.84,14.36,14.36,0,0,0,3,.3,14.72,14.72,0,1,0,0-29.44Z"/><path class="cls-7" d="M855.09,345.83a12,12,0,1,0-11.75,14.42A14.71,14.71,0,0,0,855.09,345.83Z"/><rect class="cls-1" x="605.21" y="437.78" width="6.48" height="235.26"/><rect class="cls-1" x="722.46" y="437.78" width="6.48" height="237.38"/><rect class="cls-1" x="738.16" y="437.78" width="6.48" height="233.13"/><rect class="cls-1" x="855.27" y="437.78" width="6.48" height="234.2"/><path class="cls-4" d="M879.14,461.3H589.43c-3.22,0-5.82-3.12-5.82-7V394.44c0-3.85,2.6-7,5.82-7H879.14c3.22,0,5.83,3.12,5.83,7v59.89C885,458.18,882.36,461.3,879.14,461.3Z"/><path class="cls-1" d="M619.24,409.37h-20c-2.53,0-4.58-2.46-4.58-5.49h0c0-3,2-5.48,4.58-5.48h20c2.53,0,4.58,2.45,4.58,5.48h0C623.82,406.91,621.77,409.37,619.24,409.37Z"/><path class="cls-1" d="M657.59,409.37h-20c-2.53,0-4.58-2.46-4.58-5.49h0c0-3,2-5.48,4.58-5.48h20c2.53,0,4.58,2.45,4.58,5.48h0C662.17,406.91,660.12,409.37,657.59,409.37Z"/><path class="cls-1" d="M696,409.37h-20c-2.53,0-4.58-2.46-4.58-5.49h0c0-3,2-5.48,4.58-5.48h20c2.53,0,4.58,2.45,4.58,5.48h0C700.53,406.91,698.48,409.37,696,409.37Z"/><path class="cls-1" d="M734.3,409.37h-20c-2.53,0-4.58-2.46-4.58-5.49h0c0-3,2-5.48,4.58-5.48h20c2.53,0,4.58,2.45,4.58,5.48h0C738.88,406.91,736.83,409.37,734.3,409.37Z"/><path class="cls-1" d="M619.24,430.25h-20c-2.53,0-4.58-2.46-4.58-5.49h0c0-3,2-5.48,4.58-5.48h20c2.53,0,4.58,2.46,4.58,5.48h0C623.82,427.79,621.77,430.25,619.24,430.25Z"/><path class="cls-1" d="M657.59,430.25h-20c-2.53,0-4.58-2.46-4.58-5.49h0c0-3,2-5.48,4.58-5.48h20c2.53,0,4.58,2.46,4.58,5.48h0C662.17,427.79,660.12,430.25,657.59,430.25Z"/><path class="cls-1" d="M696,430.25h-20c-2.53,0-4.58-2.46-4.58-5.49h0c0-3,2-5.48,4.58-5.48h20c2.53,0,4.58,2.46,4.58,5.48h0C700.53,427.79,698.48,430.25,696,430.25Z"/><path class="cls-1" d="M734.3,430.25h-20c-2.53,0-4.58-2.46-4.58-5.49h0c0-3,2-5.48,4.58-5.48h20c2.53,0,4.58,2.46,4.58,5.48h0C738.88,427.79,736.83,430.25,734.3,430.25Z"/><path class="cls-1" d="M619.24,451.13h-20c-2.53,0-4.58-2.46-4.58-5.48h0c0-3,2-5.48,4.58-5.48h20c2.53,0,4.58,2.46,4.58,5.48h0C623.82,448.67,621.77,451.13,619.24,451.13Z"/><path class="cls-1" d="M657.59,451.13h-20c-2.53,0-4.58-2.46-4.58-5.48h0c0-3,2-5.48,4.58-5.48h20c2.53,0,4.58,2.46,4.58,5.48h0C662.17,448.67,660.12,451.13,657.59,451.13Z"/><path class="cls-1" d="M696,451.13h-20c-2.53,0-4.58-2.46-4.58-5.48h0c0-3,2-5.48,4.58-5.48h20c2.53,0,4.58,2.46,4.58,5.48h0C700.53,448.67,698.48,451.13,696,451.13Z"/><path class="cls-1" d="M734.3,451.13h-20c-2.53,0-4.58-2.46-4.58-5.48h0c0-3,2-5.48,4.58-5.48h20c2.53,0,4.58,2.46,4.58,5.48h0C738.88,448.67,736.83,451.13,734.3,451.13Z"/><circle class="cls-5" cx="788.58" cy="427.56" r="9.13"/><circle class="cls-5" cx="813.29" cy="427.56" r="9.13"/><path class="cls-6" d="M846.3,412.84a14.36,14.36,0,0,0-3,.3,14.72,14.72,0,0,1,0,28.84,14.36,14.36,0,0,0,3,.3,14.72,14.72,0,1,0,0-29.44Z"/><path class="cls-7" d="M855.09,427.56A12,12,0,1,0,843.34,442,14.71,14.71,0,0,0,855.09,427.56Z"/><path class="cls-4" d="M879.14,541.16H589.43c-3.22,0-5.82-3.12-5.82-7V474.3c0-3.85,2.6-7,5.82-7H879.14c3.22,0,5.83,3.13,5.83,7v59.88C885,538,882.36,541.16,879.14,541.16Z"/><path class="cls-1" d="M619.24,488.84h-20c-2.53,0-4.58-2.45-4.58-5.48h0c0-3,2-5.48,4.58-5.48h20c2.53,0,4.58,2.45,4.58,5.48h0C623.82,486.39,621.77,488.84,619.24,488.84Z"/><path class="cls-1" d="M657.59,488.84h-20c-2.53,0-4.58-2.45-4.58-5.48h0c0-3,2-5.48,4.58-5.48h20c2.53,0,4.58,2.45,4.58,5.48h0C662.17,486.39,660.12,488.84,657.59,488.84Z"/><path class="cls-1" d="M696,488.84h-20c-2.53,0-4.58-2.45-4.58-5.48h0c0-3,2-5.48,4.58-5.48h20c2.53,0,4.58,2.45,4.58,5.48h0C700.53,486.39,698.48,488.84,696,488.84Z"/><path class="cls-1" d="M734.3,488.84h-20c-2.53,0-4.58-2.45-4.58-5.48h0c0-3,2-5.48,4.58-5.48h20c2.53,0,4.58,2.45,4.58,5.48h0C738.88,486.39,736.83,488.84,734.3,488.84Z"/><path class="cls-1" d="M619.24,509.72h-20c-2.53,0-4.58-2.45-4.58-5.48h0c0-3,2-5.48,4.58-5.48h20c2.53,0,4.58,2.45,4.58,5.48h0C623.82,507.27,621.77,509.72,619.24,509.72Z"/><path class="cls-1" d="M657.59,509.72h-20c-2.53,0-4.58-2.45-4.58-5.48h0c0-3,2-5.48,4.58-5.48h20c2.53,0,4.58,2.45,4.58,5.48h0C662.17,507.27,660.12,509.72,657.59,509.72Z"/><path class="cls-1" d="M696,509.72h-20c-2.53,0-4.58-2.45-4.58-5.48h0c0-3,2-5.48,4.58-5.48h20c2.53,0,4.58,2.45,4.58,5.48h0C700.53,507.27,698.48,509.72,696,509.72Z"/><path class="cls-1" d="M734.3,509.72h-20c-2.53,0-4.58-2.45-4.58-5.48h0c0-3,2-5.48,4.58-5.48h20c2.53,0,4.58,2.45,4.58,5.48h0C738.88,507.27,736.83,509.72,734.3,509.72Z"/><path class="cls-1" d="M619.24,530.6h-20c-2.53,0-4.58-2.45-4.58-5.48h0c0-3,2-5.48,4.58-5.48h20c2.53,0,4.58,2.45,4.58,5.48h0C623.82,528.15,621.77,530.6,619.24,530.6Z"/><path class="cls-1" d="M657.59,530.6h-20c-2.53,0-4.58-2.45-4.58-5.48h0c0-3,2-5.48,4.58-5.48h20c2.53,0,4.58,2.45,4.58,5.48h0C662.17,528.15,660.12,530.6,657.59,530.6Z"/><path class="cls-1" d="M696,530.6h-20c-2.53,0-4.58-2.45-4.58-5.48h0c0-3,2-5.48,4.58-5.48h20c2.53,0,4.58,2.45,4.58,5.48h0C700.53,528.15,698.48,530.6,696,530.6Z"/><path class="cls-1" d="M734.3,530.6h-20c-2.53,0-4.58-2.45-4.58-5.48h0c0-3,2-5.48,4.58-5.48h20c2.53,0,4.58,2.45,4.58,5.48h0C738.88,528.15,736.83,530.6,734.3,530.6Z"/><circle class="cls-5" cx="788.58" cy="507.03" r="9.13"/><circle class="cls-5" cx="813.29" cy="507.03" r="9.13"/><path class="cls-6" d="M846.3,492.31a15.08,15.08,0,0,0-3,.3,14.73,14.73,0,0,1,0,28.85,15.08,15.08,0,0,0,3,.29,14.72,14.72,0,1,0,0-29.44Z"/><path class="cls-7" d="M855.09,507a12,12,0,1,0-11.75,14.43A14.72,14.72,0,0,0,855.09,507Z"/><path class="cls-4" d="M879.14,621H589.43c-3.22,0-5.82-3.12-5.82-7V554.15c0-3.85,2.6-7,5.82-7H879.14c3.22,0,5.83,3.12,5.83,7V614C885,617.89,882.36,621,879.14,621Z"/><path class="cls-1" d="M619.24,568.7h-20c-2.53,0-4.58-2.46-4.58-5.49h0c0-3,2-5.48,4.58-5.48h20c2.53,0,4.58,2.45,4.58,5.48h0C623.82,566.24,621.77,568.7,619.24,568.7Z"/><path class="cls-1" d="M657.59,568.7h-20c-2.53,0-4.58-2.46-4.58-5.49h0c0-3,2-5.48,4.58-5.48h20c2.53,0,4.58,2.45,4.58,5.48h0C662.17,566.24,660.12,568.7,657.59,568.7Z"/><path class="cls-1" d="M696,568.7h-20c-2.53,0-4.58-2.46-4.58-5.49h0c0-3,2-5.48,4.58-5.48h20c2.53,0,4.58,2.45,4.58,5.48h0C700.53,566.24,698.48,568.7,696,568.7Z"/><path class="cls-1" d="M734.3,568.7h-20c-2.53,0-4.58-2.46-4.58-5.49h0c0-3,2-5.48,4.58-5.48h20c2.53,0,4.58,2.45,4.58,5.48h0C738.88,566.24,736.83,568.7,734.3,568.7Z"/><path class="cls-1" d="M619.24,589.58h-20c-2.53,0-4.58-2.46-4.58-5.49h0c0-3,2-5.48,4.58-5.48h20c2.53,0,4.58,2.46,4.58,5.48h0C623.82,587.12,621.77,589.58,619.24,589.58Z"/><path class="cls-1" d="M657.59,589.58h-20c-2.53,0-4.58-2.46-4.58-5.49h0c0-3,2-5.48,4.58-5.48h20c2.53,0,4.58,2.46,4.58,5.48h0C662.17,587.12,660.12,589.58,657.59,589.58Z"/><path class="cls-1" d="M696,589.58h-20c-2.53,0-4.58-2.46-4.58-5.49h0c0-3,2-5.48,4.58-5.48h20c2.53,0,4.58,2.46,4.58,5.48h0C700.53,587.12,698.48,589.58,696,589.58Z"/><path class="cls-1" d="M734.3,589.58h-20c-2.53,0-4.58-2.46-4.58-5.49h0c0-3,2-5.48,4.58-5.48h20c2.53,0,4.58,2.46,4.58,5.48h0C738.88,587.12,736.83,589.58,734.3,589.58Z"/><path class="cls-1" d="M619.24,610.46h-20c-2.53,0-4.58-2.46-4.58-5.48h0c0-3,2-5.49,4.58-5.49h20c2.53,0,4.58,2.46,4.58,5.49h0C623.82,608,621.77,610.46,619.24,610.46Z"/><path class="cls-1" d="M657.59,610.46h-20C635,610.46,633,608,633,605h0c0-3,2-5.49,4.58-5.49h20c2.53,0,4.58,2.46,4.58,5.49h0C662.17,608,660.12,610.46,657.59,610.46Z"/><path class="cls-1" d="M696,610.46h-20c-2.53,0-4.58-2.46-4.58-5.48h0c0-3,2-5.49,4.58-5.49h20c2.53,0,4.58,2.46,4.58,5.49h0C700.53,608,698.48,610.46,696,610.46Z"/><path class="cls-1" d="M734.3,610.46h-20c-2.53,0-4.58-2.46-4.58-5.48h0c0-3,2-5.49,4.58-5.49h20c2.53,0,4.58,2.46,4.58,5.49h0C738.88,608,736.83,610.46,734.3,610.46Z"/><circle class="cls-5" cx="788.58" cy="586.89" r="9.13"/><circle class="cls-5" cx="813.29" cy="586.89" r="9.13"/><path class="cls-6" d="M846.3,572.17a14.36,14.36,0,0,0-3,.3,14.72,14.72,0,0,1,0,28.84,14.36,14.36,0,0,0,3,.3,14.72,14.72,0,0,0,0-29.44Z"/><path class="cls-7" d="M855.09,586.89a12,12,0,1,0-11.75,14.42A14.71,14.71,0,0,0,855.09,586.89Z"/><path class="cls-4" d="M879.14,700.86H589.43c-3.22,0-5.82-3.12-5.82-7V634c0-3.85,2.6-7,5.82-7H879.14c3.22,0,5.83,3.12,5.83,7v59.89C885,697.74,882.36,700.86,879.14,700.86Z"/><path class="cls-1" d="M619.24,648.55h-20c-2.53,0-4.58-2.46-4.58-5.48h0c0-3,2-5.49,4.58-5.49h20c2.53,0,4.58,2.46,4.58,5.49h0C623.82,646.09,621.77,648.55,619.24,648.55Z"/><path class="cls-1" d="M657.59,648.55h-20c-2.53,0-4.58-2.46-4.58-5.48h0c0-3,2-5.49,4.58-5.49h20c2.53,0,4.58,2.46,4.58,5.49h0C662.17,646.09,660.12,648.55,657.59,648.55Z"/><path class="cls-1" d="M696,648.55h-20c-2.53,0-4.58-2.46-4.58-5.48h0c0-3,2-5.49,4.58-5.49h20c2.53,0,4.58,2.46,4.58,5.49h0C700.53,646.09,698.48,648.55,696,648.55Z"/><path class="cls-1" d="M734.3,648.55h-20c-2.53,0-4.58-2.46-4.58-5.48h0c0-3,2-5.49,4.58-5.49h20c2.53,0,4.58,2.46,4.58,5.49h0C738.88,646.09,736.83,648.55,734.3,648.55Z"/><path class="cls-1" d="M619.24,669.43h-20c-2.53,0-4.58-2.45-4.58-5.48h0c0-3,2-5.48,4.58-5.48h20c2.53,0,4.58,2.45,4.58,5.48h0C623.82,667,621.77,669.43,619.24,669.43Z"/><path class="cls-1" d="M657.59,669.43h-20C635,669.43,633,667,633,664h0c0-3,2-5.48,4.58-5.48h20c2.53,0,4.58,2.45,4.58,5.48h0C662.17,667,660.12,669.43,657.59,669.43Z"/><path class="cls-1" d="M696,669.43h-20c-2.53,0-4.58-2.45-4.58-5.48h0c0-3,2-5.48,4.58-5.48h20c2.53,0,4.58,2.45,4.58,5.48h0C700.53,667,698.48,669.43,696,669.43Z"/><path class="cls-1" d="M734.3,669.43h-20c-2.53,0-4.58-2.45-4.58-5.48h0c0-3,2-5.48,4.58-5.48h20c2.53,0,4.58,2.45,4.58,5.48h0C738.88,667,736.83,669.43,734.3,669.43Z"/><path class="cls-1" d="M619.24,690.31h-20c-2.53,0-4.58-2.45-4.58-5.48h0c0-3,2-5.48,4.58-5.48h20c2.53,0,4.58,2.45,4.58,5.48h0C623.82,687.86,621.77,690.31,619.24,690.31Z"/><path class="cls-1" d="M657.59,690.31h-20c-2.53,0-4.58-2.45-4.58-5.48h0c0-3,2-5.48,4.58-5.48h20c2.53,0,4.58,2.45,4.58,5.48h0C662.17,687.86,660.12,690.31,657.59,690.31Z"/><path class="cls-1" d="M696,690.31h-20c-2.53,0-4.58-2.45-4.58-5.48h0c0-3,2-5.48,4.58-5.48h20c2.53,0,4.58,2.45,4.58,5.48h0C700.53,687.86,698.48,690.31,696,690.31Z"/><path class="cls-1" d="M734.3,690.31h-20c-2.53,0-4.58-2.45-4.58-5.48h0c0-3,2-5.48,4.58-5.48h20c2.53,0,4.58,2.45,4.58,5.48h0C738.88,687.86,736.83,690.31,734.3,690.31Z"/><circle class="cls-5" cx="788.58" cy="666.74" r="9.13"/><circle class="cls-5" cx="813.29" cy="666.74" r="9.13"/><path class="cls-6" d="M846.3,652a14.36,14.36,0,0,0-3,.3,14.72,14.72,0,0,1,0,28.84,14.36,14.36,0,0,0,3,.3,14.72,14.72,0,0,0,0-29.44Z"/><path class="cls-7" d="M855.09,666.74a12,12,0,1,0-11.75,14.42A14.72,14.72,0,0,0,855.09,666.74Z"/><path class="cls-4" d="M245.8,238a46,46,0,0,1-13.24-90,75.87,75.87,0,0,1-.47-8.3,74.7,74.7,0,0,1,139.39-37.35,38.69,38.69,0,0,1,15.82-3.34,39.28,39.28,0,0,1,39.2,37.76,52.54,52.54,0,0,1,24.7,18.05A52.06,52.06,0,0,1,409.5,238Z"/><g id="KdOeBr"><path class="cls-4" d="M293.72,204.83a8.38,8.38,0,0,1,2,3.43C294,207.69,293.82,206.3,293.72,204.83Z"/><path class="cls-4" d="M349.8,120l-1.26.2C348.91,119.87,349.32,119.68,349.8,120Z"/><path class="cls-4" d="M348.64,120.16l-1.39.88Z"/></g><g id="hLGkMC"><path class="cls-8" d="M492.74,658.25v-35a3.52,3.52,0,0,0-3.53-3.52H409.79a3.52,3.52,0,0,0-3.53,3.52v35a28.08,28.08,0,0,1-28.08,28.08H363.05a3.53,3.53,0,0,0-3.53,3.53v8.26a3.53,3.53,0,0,0,3.53,3.53H534.36a3.53,3.53,0,0,0,3.53-3.53v-8.26a3.53,3.53,0,0,0-3.53-3.53H520.82A28.08,28.08,0,0,1,492.74,658.25Z"/><rect class="cls-8" x="206.17" y="300.69" width="480.5" height="331.33" rx="8.13"/><rect class="cls-7" x="349.48" y="322.26" width="307.87" height="236.44" rx="12.81"/><path class="cls-7" d="M349.47,349.4H657.35a0,0,0,0,1,0,0V546a12.71,12.71,0,0,1-12.71,12.71H362.19A12.71,12.71,0,0,1,349.47,546V349.4A0,0,0,0,1,349.47,349.4Z"/><circle class="cls-8" cx="364.77" cy="336.34" r="4.81"/><circle class="cls-8" cx="377.91" cy="336.34" r="4.81"/><circle class="cls-8" cx="391.04" cy="336.34" r="4.81"/><rect class="cls-8" x="365.63" y="352.39" width="275.57" height="184.93"/><rect class="cls-4" x="258.81" y="614.47" width="70.9" height="70.9"/><path class="cls-7" d="M678.59,300.69H214.25a8.08,8.08,0,0,0-8.08,8.08v293.4h480.5V308.77A8.08,8.08,0,0,0,678.59,300.69ZM672.9,564.83a5.68,5.68,0,0,1-5.68,5.68H225.62a5.68,5.68,0,0,1-5.68-5.68v-244a5.68,5.68,0,0,1,5.68-5.68h441.6a5.68,5.68,0,0,1,5.68,5.68Z"/><rect class="cls-1" x="233.92" y="347.87" width="261.7" height="200.98" rx="10.89"/><path class="cls-7" d="M233.92,370.95H495.63a0,0,0,0,1,0,0V538.06a10.81,10.81,0,0,1-10.81,10.81H244.73a10.81,10.81,0,0,1-10.81-10.81V370.95A0,0,0,0,1,233.92,370.95Z"/><circle class="cls-9" cx="246.93" cy="359.84" r="4.09"/><circle class="cls-5" cx="258.09" cy="359.84" r="4.09"/><circle class="cls-5" cx="269.25" cy="359.84" r="4.09"/><rect class="cls-4" x="254.13" y="393.59" width="221.29" height="132.63"/><line class="cls-10" x1="405.23" y1="430.62" x2="279.02" y2="430.62"/><line class="cls-10" x1="279.02" y1="453.77" x2="345.37" y2="453.77"/><line class="cls-10" x1="279.02" y1="476.91" x2="353.19" y2="476.91"/></g><path class="cls-4" d="M169.79,596.79H88.92a3.33,3.33,0,0,0-3.33,3.34V611C68,602.34,56,616.21,56,632.18c0,19.48,29.59,35.2,29.59,41.77a25.81,25.81,0,0,0,25.8,25.8h35.94a25.81,25.81,0,0,0,25.8-25.8V600.13A3.33,3.33,0,0,0,169.79,596.79Zm-84.2,57c0-2.35-17.42-12.33-17.42-20.73,0-7.63,5.4-15,17.42-10.69Z"/><rect class="cls-7" x="145.03" y="557.14" width="84.84" height="140.46" rx="7.24"/><path class="cls-4" d="M222.64,699H152.27a8.68,8.68,0,0,1-8.68-8.68v-126a8.69,8.69,0,0,1,8.68-8.68h70.37a8.69,8.69,0,0,1,8.68,8.68v126A8.68,8.68,0,0,1,222.64,699ZM152.27,558.58a5.8,5.8,0,0,0-5.79,5.79v126a5.8,5.8,0,0,0,5.79,5.79h70.37a5.8,5.8,0,0,0,5.79-5.79v-126a5.8,5.8,0,0,0-5.79-5.79Z"/><rect class="cls-4" x="152.2" y="575.08" width="70.52" height="98.5" rx="5.21"/><path class="cls-7" d="M217.5,673.72H157.41a5.36,5.36,0,0,1-5.36-5.35V580.29a5.37,5.37,0,0,1,5.36-5.36H217.5a5.37,5.37,0,0,1,5.36,5.36v88.08A5.36,5.36,0,0,1,217.5,673.72Zm-60.09-98.5a5.07,5.07,0,0,0-5.07,5.07v88.08a5.07,5.07,0,0,0,5.07,5.06H217.5a5.07,5.07,0,0,0,5.07-5.06V580.29a5.07,5.07,0,0,0-5.07-5.07Z"/><path class="cls-4" d="M193,568.61H181.89a1.45,1.45,0,0,1,0-2.89H193a1.45,1.45,0,0,1,0,2.89Z"/><circle class="cls-4" cx="187.46" cy="686.41" r="5.5"/><path class="cls-5" d="M211.91,647.21H201.76a.76.76,0,0,0-.77.81l.32,5.41a.77.77,0,0,1-1.27.62l-7.5-6.65a.74.74,0,0,0-.51-.19H163a4,4,0,0,1-3.94-4V602.62a4,4,0,0,1,3.94-4h48.91a4,4,0,0,1,3.94,4v40.64A4,4,0,0,1,211.91,647.21Z"/><path class="cls-4" d="M191.12,614.66H166.45a2,2,0,1,1,0-4h24.67a2,2,0,0,1,0,4Z"/><path class="cls-4" d="M191.12,624.11H166.45a2,2,0,0,1,0-4.05h24.67a2,2,0,0,1,0,4.05Z"/><path class="cls-7" d="M208.46,614.66H199a2,2,0,1,1,0-4h9.42a2,2,0,1,1,0,4Z"/><path class="cls-7" d="M208.46,624.11H199a2,2,0,0,1,0-4.05h9.42a2,2,0,0,1,0,4.05Z"/><path class="cls-9" d="M208.46,633.55H199a2,2,0,0,1,0-4h9.42a2,2,0,0,1,0,4Z"/><path class="cls-11" d="M820.85,526.57l21.85,0a14.16,14.16,0,0,1,14.15,14.18v3.91a2.41,2.41,0,0,1-2.42,2.41l-33.6,0a2.42,2.42,0,0,1-2.42-2.42l0-15.66A2.41,2.41,0,0,1,820.85,526.57Z"/><rect class="cls-12" x="623.43" y="664.39" width="32.86" height="37.93" rx="9.21"/><rect class="cls-12" x="768.86" y="664.52" width="32.86" height="37.93" rx="9.21"/><path class="cls-12" d="M708.42,670.41l0-47.51a34.86,34.86,0,0,1,34.9-34.83l85.6.08,0-54a28.71,28.71,0,0,0-28.68-28.73l-24.9,0v9.33a34.86,34.86,0,0,1-34.89,34.84l-47.51,0a34.85,34.85,0,0,1-34.83-34.89v-9.34l-37.23,0a28.72,28.72,0,0,0-28.74,28.68l-.1,112.65a28.7,28.7,0,0,0,28.68,28.74l88,.08A33.5,33.5,0,0,1,708.42,670.41Z"/><path class="cls-11" d="M693,549.46l47.51,0a34.86,34.86,0,0,0,34.89-34.84v-9.33l-117.23-.11v9.34A34.85,34.85,0,0,0,693,549.46Z"/><path class="cls-11" d="M828.91,646.75l.05-58.6-85.6-.08a34.86,34.86,0,0,0-34.9,34.83l0,47.51a33.5,33.5,0,0,0,.35,4.94l91.4.09A28.72,28.72,0,0,0,828.91,646.75Z"/><path class="cls-13" d="M574.91,464.44l-29.67-7.71a14.16,14.16,0,0,1-10.14-17.27l1-3.79a2.43,2.43,0,0,1,2.95-1.73l41,10.68a2.41,2.41,0,0,1,1.73,2.94l-3.95,15.15A2.4,2.4,0,0,1,574.91,464.44Z"/><path class="cls-13" d="M652.74,464l27.81-7.18a14.15,14.15,0,0,0,10.17-17.24l-1-3.8a2.41,2.41,0,0,0-2.94-1.73l-39.18,10.11a2.41,2.41,0,0,0-1.73,2.94l3.91,15.16A2.42,2.42,0,0,0,652.74,464Z"/><rect class="cls-13" x="565.46" y="465.89" width="90.62" height="37.24"/><path class="cls-14" d="M640.59,493.3a11.41,11.41,0,1,0-11.4-11.42A11.42,11.42,0,0,0,640.59,493.3Z"/><path class="cls-12" d="M688.78,607.09l-9-89.27L659.89,411.27,648.3,439.59l-36.45,0-.12,127.92A28.7,28.7,0,0,1,583,596.16l-39.12,0a29.2,29.2,0,0,1-7-.87l-1.3,9.46ZM629.19,481.88a11.42,11.42,0,1,1,11.4,11.42A11.41,11.41,0,0,1,629.19,481.88Z"/><path class="cls-11" d="M686,595.7l-4.5-62.91-69.73.89.09-94.12-35.63,0-10.58-28.34L547.56,517.69,536.9,595.26a29.2,29.2,0,0,0,7,.87ZM571.21,481.82a11.41,11.41,0,1,1,11.4,11.42A11.41,11.41,0,0,1,571.21,481.82Z"/><path class="cls-13" d="M680.41,517.82l-135.15-.13a28.71,28.71,0,0,0-28.73,28.68l0,39.12a28.71,28.71,0,0,0,28.68,28.74l135.15.12a28.71,28.71,0,0,0,28.74-28.68l0-39.12A28.7,28.7,0,0,0,680.41,517.82Zm-91.94,37.35a3,3,0,0,1-2,2.83l-15.31,5.14a3,3,0,0,0,0,5.67l15.29,5.11a3,3,0,0,1,2,2.84v7.4a3,3,0,0,1-4.1,2.77l-33.22-13.27a3,3,0,0,1-1.88-2.78v-9.83a3,3,0,0,1,1.88-2.78l33.25-13.21a3,3,0,0,1,4.09,2.78ZM676.33,571a3,3,0,0,1-1.88,2.77L641.2,587a3,3,0,0,1-4.09-2.78v-7.32a3,3,0,0,1,2-2.83L654.45,569a3,3,0,0,0,0-5.67l-15.29-5.16a3,3,0,0,1-2-2.83v-7.41a3,3,0,0,1,4.1-2.77l33.22,13.27a3,3,0,0,1,1.88,2.78Z"/></svg>